<ttFont>
<head>
    <!-- Most of this table will be recalculated by the compiler -->
    <tableVersion value="1.0"/>
    <fontRevision value="1.0"/>
    <checkSumAdjustment value="0xbc24cdf1"/>
    <magicNumber value="0x5f0f3cf5"/>
    <flags value="00000000 00000011"/>
    <unitsPerEm value="2048"/>
    <created value="Tue May 30 14:32:58 2017"/>
    <modified value="Wed May 31 02:49:28 2017"/>
    <xMin value="-613"/>
    <yMin value="-535"/>
    <xMax value="2873"/>
    <yMax value="2206"/>
<macStyle value="00000000 00000010"/>
    <lowestRecPPEM value="3"/>
    <fontDirectionHint value="2"/>
    <indexToLocFormat value="0"/>
    <glyphDataFormat value="0"/>
  </head>
          <CharString index="0">
            rmoveto
            118 30 92 84 117 hhcurveto
            114 67 -76 -95 -11 -1 -14 -2 -6 hvcurveto
            -264 -692 rmoveto
            278 203 153 223 56 hvcurveto
            -321 hlineto
            -76 -26 -74 -51 -100 hhcurveto
            -127 -77 89 123 11 1 11 2 11 hvcurveto
            751 hlineto
            12 53 5 69 56 vvcurveto
            284 -195 184 -288 -358 -241 -277 -369 -306 191 -188 308 vhcurveto
            return
          </CharString>
          <CharString index="1">
            rmoveto
            171 112 87 callsubr
            -181 -248 -228 -90 callsubr
            hvcurveto
            -136 -1195 rmoveto
            -56 callsubr
            356 -239 262 -408 -442 -346 -359 -516 -357 244 -261 400 hvcurveto
            return
          </CharString>
          <CharString index="2">
            242 rmoveto
            -107 -69 92 138 215 112 160 154 106 69 -92 -138 -212 -114 -163 -151 hvcurveto
            105 873 rmoveto
            -366 -264 -274 -376 -294 205 -197 306 366 264 274 376 293 -205 198 -306 hvcurveto
            return
          </CharString>
          <CharString index="3">
            1089 rmoveto
            -345 hlineto
            -134 -629 rlineto
            -125 -27 -82 -78 -111 hhcurveto
            -104 -58 55 103 22 3 27 4 24 hvcurveto
            129 601 -31 callgsubr
            -139 -657 rlineto
            -9 -41 -6 -54 -46 vvcurveto
            -189 132 -128 208 155 130 80 118 63 vhcurveto
            7 hlineto
            -37 -172 rlineto
            333 hlineto
            return
          </CharString>
          <CharString index="4">
            1121 rmoveto
            8 hlineto
            40 -540 45 callsubr
            363 -581 rmoveto
            373 hlineto
            -166 -51 callgsubr
            -449 hlineto
            -804 -29 callsubr
            388 hlineto
            163 317 rlineto
            471 hlineto
            return
          </CharString>
          <CharString index="5">
            -102 callgsubr
            endchar
          </CharString>
          <CharString index="6">
            -284 3 234 -166 368 hhcurveto
            372 240 197 285 202 -114 111 -255 75 hvcurveto
            -143 43 rlineto
            -130 38 -49 47 71 vvcurveto
            80 80 66 134 139 90 -68 -102 4 vhcurveto
            338 hlineto
            280 -1 -224 168 -354 hhcurveto
            -336 -243 -187 -282 -197 126 -126 240 -74 hvcurveto
            138 -42 rlineto
            146 -45 39 -40 -71 vvcurveto
            -92 -93 -58 -137 -143 -106 71 100 -14 vhcurveto
            return
          </CharString>
          <CharString index="7">
            757 rmoveto
            -150 93 -99 202 -67 vhcurveto
            98 -33 rlineto
            106 -36 32 -23 -45 vvcurveto
            -58 -55 -38 -88 -112 -72 56 81 -7 vhcurveto
            -327 hlineto
            -224 9 196 -147 303 hhcurveto
            297 197 147 220 146 -79 83 -206 69 hvcurveto
            -116 38 rlineto
            -111 37 -33 25 48 vvcurveto
            57 56 38 89 94 66 -52 -75 5 vhcurveto
            310 hlineto
            212 -7 -191 147 -272 hhcurveto
            -289 -188 -142 -215 hvcurveto
            return
          </CharString>
          <CharString index="8" raw="1">
            1c04892a 1d0b  
          </CharString>
          <CharString index="9">
            343 hlineto
            136 642 rlineto
            119 25 92 82 111 hhcurveto
            100 68 -63 -87 -23 -3 -24 -6 -29 hvcurveto
            -131 -617 60 callgsubr
            142 100 callsubr
            47 5 44 41 vvcurveto
            178 -133 129 -202 -155 -123 -73 -114 -76 vhcurveto
            -7 hlineto
            112 520 rlineto
            -343 hlineto
            return
          </CharString>
          <CharString index="10">
            rmoveto
            146 116 61 113 77 hvcurveto
            7 hlineto
            -34 -158 rlineto
            337 -57 callgsubr
            -344 hlineto
            -115 -540 rlineto
            -8 hlineto
            124 -36 -119 78 -161 hhcurveto
            -312 -233 -297 -399 -261 143 -164 229 hvcurveto
            160 266 rmoveto
            -108 -70 84 129 209 117 159 148 109 71 -85 -125 -203 -121 -168 -146 hvcurveto
            return
          </CharString>
          <CharString index="11">
            hlineto
            35 callsubr
            return
          </CharString>
          <CharString index="12">
            rmoveto
            56 62 5 8 31 hvcurveto
            53 242 rlineto
            -4 -14 -18 -2 -40 hhcurveto
            -89 -40 26 62 15 2 24 4 17 hvcurveto
            92 429 rlineto
            217 hlineto
            54 256 rlineto
            -217 hlineto
            55 262 rlineto
            -343 hlineto
            -56 -262 rlineto
            -162 hlineto
            -56 -256 rlineto
            163 hlineto
            -99 -468 rlineto
            -9 -46 -2 -41 -27 vvcurveto
            -159 134 -81 222 vhcurveto
            return
          </CharString>
          <CharString index="13">
            -68 callgsubr
            -375 hlineto
            -121 -568 rlineto
            -559 hlineto
            122 568 rlineto
            -375 -96 callsubr
            375 hlineto
            124 584 rlineto
            559 hlineto
            -125 -584 rlineto
            return
          </CharString>
          <CharString index="14">
            -98 callgsubr
            endchar
          </CharString>
          <CharString index="15" raw="1">
            eeacf705 1df6f88d 05f76406 8306f729
            fc8d05f8 1206fb3d f8b105f7 75d8f711
            f759f765 1af787fb 3cf744fb bc1efcfb
            06f7c9fb a915f761 06f711d2 4efb04fb
            1a242cfb 331ffb76 060b 
          </CharString>
          <CharString index="16">
            rmoveto
            23 callgsubr
            hlineto
            457 307 367 516 353 -236 207 -346 hvcurveto
            -250 -294 rmoveto
            166 hlineto
            185 104 -119 -193 -333 -182 -210 -255 hvcurveto
            -199 hlineto
            return
          </CharString>
          <CharString index="17">
            -50 callsubr
            307 181 249 227 return
          </CharString>
          <CharString index="18">
            -26 rmoveto
            271 209 147 230 58 hvcurveto
            -320 hlineto
            -84 -26 -69 -47 -97 hhcurveto
            -128 -81 89 142 hvcurveto
            5 0 11 2 vvcurveto
            751 hlineto
            9 50 7 78 51 vvcurveto
            274 -198 193 -277 -131 -123 -51 -89 -87 vhcurveto
            -16 hlineto
            83 -62 -140 57 -136 hhcurveto
            -259 -194 -145 -215 -41 hvcurveto
            316 hlineto
            67 20 59 39 94 hhcurveto
            90 60 -43 -61 -12 -1 -14 -2 -10 hvcurveto
            -13 -64 -258 -8 rlineto
            -311 -8 -176 -134 -227 vvcurveto
            -176 167 -130 235 170 161 71 118 84 vhcurveto
            16 hlineto
            -108 55 158 -81 156 hhcurveto
            -148 693 rmoveto
            121 31 94 81 119 hhcurveto
            104 73 -70 -101 -12 -2 -14 -2 -5 hvcurveto
            -997 -449 rmoveto
            -85 -56 44 61 73 67 48 105 4 hvcurveto
            201 7 -18 -82 rlineto
            -89 -20 -89 -66 -105 hhcurveto
            return
          </CharString>
          <CharString index="19">
            385 hmoveto
            187 882 rlineto
            7 hlineto
            426 -882 rlineto
            288 -57 callgsubr
            -353 hlineto
            -186 -882 rlineto
            -7 hlineto
            -426 882 rlineto
            -288 -96 callsubr
            return
          </CharString>
          <CharString index="20">
            rmoveto
            81 65 10 12 35 hvcurveto
            54 247 rlineto
            -3 -7 -13 -1 -12 hhcurveto
            -32 -19 13 29 -3 hvcurveto
            11 1 16 4 17 vhcurveto
            233 1098 79 callsubr
            -255 -1197 -5 -26 -3 -24 1 -23 rlinecurve
            -105 5 78 -74 137 hhcurveto
            return
          </CharString>
          <CharString index="21">
            rmoveto
            271 hlineto
            332 327 rlineto
            -253 hlineto
            -184 -192 rlineto
            -8 hlineto
            -103 192 rlineto
            -247 hlineto
            endchar
          </CharString>
          <CharString index="22">
            rmoveto
            -214 hlineto
            -96 -24 -75 -65 -103 hhcurveto
            -90 -48 49 76 12 2 12 3 12 hvcurveto
            -206 hlineto
            -4 -21 -3 -22 -21 vvcurveto
            -151 111 -114 206 242 158 144 185 45 vhcurveto
            return
          </CharString>
          <CharString index="23">
            rmoveto
            -721 hlineto
            -35 -165 rlineto
            721 hlineto
            return
          </CharString>
          <CharString index="24">
            hmoveto
            317 226 192 268 148 -109 111 -154 33 hvcurveto
            1 7 rlineto
            194 39 140 144 191 vvcurveto
            177 -148 133 -274 vhcurveto
            -631 -96 callsubr
            615 1205 rmoveto
            194 hlineto
            121 63 -54 -85 -113 -97 -82 -144 hvcurveto
            -208 hlineto
            -129 -611 rmoveto
            79 374 rlineto
            221 hlineto
            135 70 -59 -98 -130 -101 -87 -158 hvcurveto
            return
          </CharString>
          <CharString index="25">
            236 731 -25 rmoveto
            441 304 320 483 20 hvcurveto
            420 23 -234 270 -390 hhcurveto
            -359 -263 -206 -339 -76 hvcurveto
            358 hlineto
            148 52 117 91 139 hhcurveto
            171 102 -114 -187 hvcurveto
            -505 hlineto
            -59 -266 rlineto
            531 hlineto
            -197 -48 -131 -115 -175 hhcurveto
            -154 -103 87 143 -15 hvcurveto
            -357 hlineto
            -321 7 246 -217 358 hhcurveto
            return
          </CharString>
          <CharString index="26">
            rmoveto
            -4 -22 -2 -19 -19 vvcurveto
            -158 133 -111 183 235 164 129 200 46 vhcurveto
            -213 hlineto
            -100 -24 -79 -61 -98 hhcurveto
            -87 -51 46 79 12 2 12 2 12 hvcurveto
            return
          </CharString>
          <CharString index="27">
            -418 6 119 callsubr
            123 573 rlineto
            160 34 94 79 142 hhcurveto
            62 51 -15 -21 44 hvcurveto
            66 301 rlineto
            18 -39 -45 10 -60 hhcurveto
            -122 -98 -70 -101 -53 hvcurveto
            -7 hlineto
            31 155 rlineto
            -335 hlineto
            return
          </CharString>
          <CharString index="28" raw="1">
            33f70ff9 5215f7d0 06e6b0d4 c1e61bf7
            04cb45fb 0a8c8b8b 8b1ffbe7 065efb68
            05f7f506 fb0a762b 30fb071b 2c51c3e6
            841ffbd2 06fb9497 f739fb30 f7b91bf8
            03f784f7 a7f816f7 bffb4cf7 49fbc2fb
            b1fb54fb 29fb9c49 1f0b 
          </CharString>
          <CharString index="29">
            rmoveto
            -271 hlineto
            -332 -327 rlineto
            253 hlineto
            185 192 rlineto
            7 hlineto
            103 -192 50 callsubr
            return
          </CharString>
          <CharString index="30">
            rmoveto
            -673 hlineto
            -35 -165 rlineto
            673 hlineto
            endchar
          </CharString>
          <CharString index="31">
            102 78 75 97 98 -78 75 -102 -102 -78 -75 -98 -97 78 -75 102 hvcurveto
            114 -91 rmoveto
            -344 hlineto
            -239 -1124 rlineto
            -68 -14 -41 -35 -73 hhcurveto
            -27 -22 3 3 -17 hvcurveto
            -54 -247 rlineto
            -8 38 67 -6 46 hhcurveto
            226 163 118 205 44 hvcurveto
            endchar
          </CharString>
          <CharString index="32">
            rmoveto
            149 hlineto
            148 90 -62 -101 -107 -101 -80 -136 -144 -99 82 114 6 hvcurveto
            -338 hlineto
            -274 -45 244 -205 371 hhcurveto
            348 250 186 260 151 -93 111 -157 38 hvcurveto
            1 7 rlineto
            198 26 139 146 182 vvcurveto
            227 -215 159 -307 -311 -240 -179 -256 -36 vhcurveto
            333 hlineto
            90 17 94 64 114 hhcurveto
            123 79 -59 -92 -102 -94 -64 -153 hvcurveto
            -181 hlineto
            return
          </CharString>
          <CharString index="33">
            rmoveto
            105 -62 82 -103 34 vhcurveto
            3 11 123 24 89 102 1 115 rlinecurve
            172 -181 122 -260 -297 -194 -143 -246 -43 vhcurveto
            320 hlineto
            84 18 66 50 97 hhcurveto
            78 54 -39 -55 hvcurveto
            -63 -1 -64 -43 -95 hhcurveto
            -127 hlineto
            -44 -209 rlineto
            140 hlineto
            90 48 -32 -59 -67 -71 -52 -95 -104 -67 58 89 -6 hvcurveto
            -321 hlineto
            -246 2 191 -161 295 hhcurveto
            305 214 152 215 1 hvcurveto
            return
          </CharString>
          <CharString index="34">
            489 1107 -26 rmoveto
            363 258 272 378 293 -201 198 -302 -289 -221 -174 -258 -80 hvcurveto
            -131 hlineto
            86 407 -31 callgsubr
            -231 -1090 15 callgsubr
            288 hhcurveto
            13 260 rmoveto
            -103 -65 94 133 231 120 163 137 103 65 -94 -133 -228 -121 -166 -136 hvcurveto
            return
          </CharString>
          <CharString index="35">
            rmoveto
            -92 callgsubr
            return
          </CharString>
          <CharString index="36">
            rmoveto
            11 27 35 5 36 hhcurveto
            55 36 -29 -42 -48 -37 -40 -74 -28 hvcurveto
            75 -127 rlineto
            144 49 96 115 124 vvcurveto
            110 -91 76 -130 -47 -52 -8 -12 -35 vhcurveto
            endchar
          </CharString>
          <CharString index="37">
            258 rmoveto
            -110 -71 85 125 198 117 174 150 109 68 -84 -130 -207 -116 -161 -147 hvcurveto
            -365 -610 rmoveto
            118 552 rlineto
            7 hlineto
            -136 43 116 -80 157 hhcurveto
            311 230 295 401 262 -142 163 -228 -138 -121 -59 -114 -81 hvcurveto
            -7 hlineto
            34 157 rlineto
            -335 hlineto
            -307 -1441 rlineto
            return
          </CharString>
          <CharString index="38">
            144 400 hmoveto
            84 398 169 168 254 -566 rlineto
            404 hlineto
            -354 774 660 669 rlineto
            -423 hlineto
            -611 -616 rlineto
            -7 hlineto
            131 616 -91 callgsubr
            return
          </CharString>
          <CharString index="39">
            rmoveto
            84 -46 59 -86 24 vhcurveto
            5 vlineto
            108 12 68 66 91 vvcurveto
            118 -133 89 -174 -184 -132 -83 -117 -64 43 -53 70 -18 vhcurveto
            -2 -5 rlineto
            -132 -23 -79 -75 -102 vvcurveto
            -130 133 -89 196 207 143 87 124 vhcurveto
            -340 -40 rmoveto
            -35 1 -26 31 2 40 2 39 32 31 37 -2 36 -2 26 -31 -2 -39 -3 -41 -31 -30 -38 3 rrcurveto
            61 292 rmoveto
            -33 2 -24 30 2 37 2 39 30 30 34 -3 34 -1 25 -30 -3 -38 -2 -38 -30 -30 -35 2 rrcurveto
            endchar
          </CharString>
          <CharString index="40">
            -78 callsubr
            endchar
          </CharString>
          <CharString index="41" raw="1">
            15630af7 f8fb83f7 9afc2c1f 83fbbe15
            f742f705 e20afb4b fb8cfb7a fb41fb05
            c21df74a f78df77a 1f0b 
          </CharString>
          <CharString index="42">
            667 711 718 rmoveto
            136 83 -66 -124 -148 -115 -102 -163 hvcurveto
            -188 hlineto
            94 440 rlineto
            -520 -718 rmoveto
            615 hlineto
            388 256 218 339 282 -191 161 -319 hvcurveto
            -169 hlineto
            94 443 59 callsubr
            1389 -1443 -72 callsubr
            return
          </CharString>
          <CharString index="43">
            rmoveto
            -272 hlineto
            -331 -327 rlineto
            253 hlineto
            184 192 rlineto
            8 8 callgsubr
          </CharString>
          <CharString index="44" raw="1">
            15f803f7 9bf7a7f8 0bf7b9fb 60f75afb
            c7fc03fb 9bfba7fc 0bfbb9f7 60fb5af7
            c71f99f7 98152046 def724f7 87f710f7
            2bf722f5 d037fb23 fb82fb11 fb30fb20
            1ffb9ef8 351560fb 5e05f917 06b6f75e
            050b   
          </CharString>
          <CharString index="45">
            71 332 105 97 200 -429 rlineto
            373 hlineto
            -297 616 497 473 rlineto
            -398 hlineto
            -397 -399 rlineto
            -7 hlineto
            160 753 rlineto
            -343 hlineto
            -308 -29 callsubr
            return
          </CharString>
          <CharString index="46">
            69 callsubr
            -306 -29 callsubr
            367 hlineto
            90 423 120 callsubr
            394 257 224 361 262 -189 173 -315 hvcurveto
            -230 -282 rmoveto
            154 hlineto
            134 77 -62 -124 -162 -111 -113 -171 hvcurveto
            -181 hlineto
            return
          </CharString>
          <CharString index="47">
            rmoveto
            3 22 3 19 19 vvcurveto
            158 -133 111 -183 -235 -164 -129 -200 -46 vhcurveto
            213 hlineto
            100 24 79 61 98 hhcurveto
            87 51 -46 -79 -12 -2 -12 -2 -12 hvcurveto
            endchar
          </CharString>
          <CharString index="48">
            1121 hlineto
            62 295 rlineto
            -666 7 hlineto
            838 908 50 233 rlineto
            -1087 hlineto
            -64 -295 rlineto
            634 -7 hlineto
            -838 -908 rlineto
            return
          </CharString>
          <CharString index="49" raw="1">
            158cf782 8b8c1b8c 9205b090 a8a6ad1b
            aca2786f 666d6ffb 2e231ffb 6cfb2163
            fb4b05f8 e706b5f7 5805fb8a 8406c2b3
            05f75cf7 16c2c8ef 1af712fb 0ce4fb3e
            fb4dfb25 fb06fb2c 851e0e 
          </CharString>
          <CharString index="50">
            -100 617 569 rmoveto
            -78 -50 44 69 90 76 64 108 hvcurveto
            150 hlineto
            -57 -267 rlineto
            -121 -569 rmoveto
            344 hlineto
            -27 callsubr
            -561 hlineto
            -304 -214 -172 -244 -121 61 -100 106 -55 hvcurveto
            -364 -397 rlineto
            402 hlineto
            296 338 rlineto
            0 0 0 0 vhcurveto
            74 hlineto
            return
          </CharString>
          <CharString index="51">
            441 350 358 517 return
          </CharString>
          <CharString index="52">
            359 -57 callgsubr
            -351 hlineto
            -777 -893 rlineto
            -19 hlineto
            191 893 rlineto
            -359 -96 callsubr
            351 hlineto
            776 892 rlineto
            19 hlineto
            return
          </CharString>
          <CharString index="53">
            rmoveto
            -325 -295 112 callsubr
            166 rlineto
            8 hlineto
            103 -166 52 callsubr
            -198 295 rlineto
            return
          </CharString>
          <CharString index="54">
            373 1114 -44 callsubr
            -730 -552 -37 callsubr
            return
          </CharString>
          <CharString index="55">
            rmoveto
            10 29 33 5 38 hhcurveto
            56 34 -26 -42 -45 -44 -44 -73 -29 hvcurveto
            74 -128 rlineto
            149 51 99 117 128 vvcurveto
            111 -90 75 -133 -43 -53 -9 -13 -41 vhcurveto
            -71 -400 -65 callgsubr
            endchar
          </CharString>
          <CharString index="56">
            rmoveto
            128 -95 95 -124 -75 -56 -26 -53 -38 vhcurveto
            -6 hlineto
            79 2 50 68 56 hhcurveto
            27 24 -15 -22 6 hvcurveto
            254 hlineto
            137 4 -125 99 -176 hhcurveto
            -91 -126 -37 -109 -82 hvcurveto
            -51 -68 -34 -94 -124 vvcurveto
            -207 120 -120 211 179 146 120 149 vhcurveto
            -399 -13 rmoveto
            42 33 34 42 41 31 -31 -40 -43 -33 -33 -43 -41 -30 30 41 vhcurveto
            endchar
          </CharString>
          <CharString index="57">
            -171 -111 134 207 return
          </CharString>
          <CharString index="58">
            60 59 -52 callgsubr
            return
          </CharString>
          <CharString index="59">
            rmoveto
            109 -341 rlineto
            369 hlineto
            -211 540 446 549 rlineto
            -381 hlineto
            -238 -341 rlineto
            -7 hlineto
            -110 341 106 callsubr
            211 -540 -447 -549 rlineto
            381 hlineto
            239 341 rlineto
            return
          </CharString>
          <CharString index="60">
            rmoveto
            80 96 callsubr
            -80 72 callgsubr
            96 callsubr
            -80 -79 61 callsubr
            79 hvcurveto
            return
          </CharString>
          <CharString index="61">
            rmoveto
            255 hlineto
            -163 314 rlineto
            -297 hlineto
            endchar
          </CharString>
          <CharString index="62">
            rmoveto
            213 133 130 172 113 -86 83 -115 -71 -54 -21 -41 -41 hvcurveto
            -4 hlineto
            38 105 rlineto
            333 hlineto
            42 195 rlineto
            -546 hlineto
            -118 -424 rlineto
            236 hlineto
            21 12 26 14 28 hhcurveto
            39 27 -27 -38 -48 -32 -33 -48 -41 -33 28 36 -2 hvcurveto
            0 -239 vlineto
            -4 0 -6 -2 vvcurveto
            -151 121 -102 182 vhcurveto
            endchar
          </CharString>
          <CharString index="63">
            119 callsubr
            -27 callsubr
            -345 hlineto
            return
          </CharString>
          <CharString index="64" raw="1">
            16f82606 f81ef853 0599062b fc5305f7
            e506eaf8 53059906 f765fc53 05f7f106
            fbb0f901 8d29f892 f8ca05fc 0606fc07
            fc3c057e 06e5f83c ce1d31fc 3c057f06
            fb5df83c 05fbf106 f79ffcb5 8aeb050b
          </CharString>
          <CharString index="65">
            rmoveto
            205 333 rlineto
            -335 hlineto
            -93 -333 rlineto
            554 -12 rmoveto
            85 62 64 77 78 -63 63 -84 -85 -63 -63 -78 1 hvcurveto
            -77 62 -64 85 vhcurveto
            -747 hmoveto
            85 63 64 77 hvcurveto
            78 -1 -62 63 -85 hhcurveto
            -85 -62 -63 -78 -77 63 -64 84 hvcurveto
            endchar
          </CharString>
          <CharString index="66">
            1167 rmoveto
            -122 -575 rlineto
            -337 hlineto
            339 575 rlineto
            -128 -1167 rmoveto
            976 hlineto
            62 295 rlineto
            -645 hlineto
            62 293 rlineto
            609 hlineto
            58 270 rlineto
            -609 hlineto
            61 290 rlineto
            646 hlineto
            63 295 rlineto
            -1337 hlineto
            -873 -29 callsubr
            371 hlineto
            194 327 rlineto
            431 hlineto
            return
          </CharString>
          <CharString index="67">
            -442 -346 -359 -516 -357 244 -261 400 -56 callsubr
            return
          </CharString>
          <CharString index="68">
            rmoveto
            257 330 rlineto
            -313 hlineto
            -211 -330 rlineto
            endchar
          </CharString>
          <CharString index="69">
            292 751 -25 rmoveto
            478 316 363 549 358 -229 223 -365 -341 -273 -179 -290 -102 hvcurveto
            372 hlineto
            115 65 108 60 136 hhcurveto
            186 102 -131 -209 -23 hvcurveto
            -6 -2 -12 -1 -10 vhcurveto
            -995 hlineto
            -23 -59 -20 -110 -81 vvcurveto
            -352 241 -229 370 vhcurveto
            19 294 rmoveto
            -161 -99 94 153 18 1 11 2 14 hvcurveto
            618 hlineto
            -175 -49 -144 -115 -168 hhcurveto
            return
          </CharString>
          <CharString index="70">
            rmoveto
            80 48 -44 -68 -93 -80 -76 -108 hvcurveto
            -146 hlineto
            60 281 rlineto
            -459 -537 rmoveto
            557 hlineto
            303 220 203 259 195 -153 131 -234 hvcurveto
            -181 hlineto
            64 301 -31 callgsubr
            return
          </CharString>
          <CharString index="71" raw="1">
            15f714f8 ed05fc03 e51df710 f8d80597
            06f808fc d805f82f 06fc80f9 99a02bf9
            92f99205 fc3d06fc ecfced05 0b
          </CharString>
          <CharString index="72">
            rmoveto
            -159 316 rlineto
            -307 hlineto
            193 83 callgsubr
          </CharString>
          <CharString index="73" raw="1">
            15fa1b73 1d0b  
          </CharString>
          <CharString index="74">
            -65 461 739 rmoveto
            75 25 75 51 99 hhcurveto
            128 76 -89 -123 -10 -1 -11 -1 -12 hvcurveto
            -751 hlineto
            -13 -53 -5 -69 -56 vvcurveto
            -284 196 -183 288 358 241 277 369 305 -192 189 -309 -276 -204 -154 -222 -56 vhcurveto
            452 -519 rmoveto
            -115 -67 75 96 11 1 15 2 6 hvcurveto
            417 hlineto
            -119 -30 -92 -84 -116 hhcurveto
            return
          </CharString>
          <CharString index="75">
            rmoveto
            -196 119 -116 201 227 167 191 263 195 -119 114 -205 -226 -164 -187 -264 vhcurveto
            321 -111 rmoveto
            -30 -16 30 57 137 57 137 58 66 callgsubr
            -61 -140 -58 hvcurveto
            endchar
          </CharString>
          <CharString index="76">
            rmoveto
            -531 -400 -391 -519 -461 329 -309 490 48 50 4 7 45 hvcurveto
            37 179 rlineto
            -6 -18 -55 -6 -52 hhcurveto
            -410 -1 -260 233 367 vvcurveto
            409 312 316 403 337 225 -205 -308 -223 -98 -194 -114 -45 -27 29 47 11 0 12 4 21 vhcurveto
            113 524 rlineto
            -232 hlineto
            -26 -126 -19 2 rlineto
            97 -22 -91 62 -117 hhcurveto
            -219 -173 -211 -268 -213 117 -140 175 101 78 44 100 57 hvcurveto
            19 4 rlineto
            -7 -1 -9 -9 vvcurveto
            -91 3 103 -60 145 hhcurveto
            275 201 256 349 406 -307 278 -450 hvcurveto
            48 -802 rmoveto
            -145 -77 -113 -100 -78 -49 62 98 142 81 114 100 77 46 -59 -99 vhcurveto
            endchar
          </CharString>
          <CharString index="77">
            -579 579 1088 rmoveto
            -344 hlineto
            -160 -748 94 callsubr
            -157 132 -83 225 57 58 5 8 33 vhcurveto
            53 242 rlineto
            -4 -13 -19 -2 -40 hhcurveto
            -90 -39 27 61 110 callsubr
            return
          </CharString>
          <CharString index="78">
            -1443 rlineto
            return
          </CharString>
          <CharString index="79" raw="1">
            15e5f838 05fbecd8 1de9f84f 059106f7
            7ffc4f05 f80d06fb e4f8fc95 36f8bef8
            c205fc19 06fc27fc 38050b 
          </CharString>
          <CharString index="80">
            232 1089 rlineto
            return
          </CharString>
          <CharString index="81">
            hlineto
            60 282 rlineto
            return
          </CharString>
          <CharString index="82" raw="1">
            15f71506 b6f77005 fb16064d 6ca8c4b7
            9dc0b6c6 1ffb8e06 61576837 3c1afb42
            f71742f7 4e1ef7ee f764200a 0e
          </CharString>
          <CharString index="83">
            rmoveto
            35 callsubr
            367 hlineto
            116 544 rlineto
            76 64 99 44 121 hhcurveto
            169 73 -96 -168 -37 hvcurveto
            -84 -400 rlineto
            367 hlineto
            92 435 rlineto
            321 69 -163 216 -329 hhcurveto
            -134 -124 -39 -61 -95 hvcurveto
            -19 hlineto
            122 571 rlineto
            endchar
          </CharString>
          <CharString index="84" raw="1">
            5c1d0e   
          </CharString>
          <CharString index="85">
            rmoveto
            159 -115 -134 77 -159 hhcurveto
            -281 -211 -201 -273 -240 175 -175 247 172 143 78 159 121 hvcurveto
            -159 116 133 -77 160 hhcurveto
            280 212 202 272 240 -175 175 -248 -172 -142 -77 -160 -122 hvcurveto
            -418 -41 rmoveto
            80 81 -57 -110 77 hvcurveto
            -115 -88 -79 -52 -84 hhcurveto
            -93 -76 72 80 105 81 77 101 hvcurveto
            794 -334 rmoveto
            -80 -80 57 110 -77 hvcurveto
            115 88 79 52 83 hhcurveto
            93 77 -72 -80 -105 -81 -77 -102 hvcurveto
            endchar
          </CharString>
          <CharString index="86">
            -173 124 -133 165 85 76 35 47 44 vhcurveto
            18 hlineto
            -153 -38 -159 -106 -179 hhcurveto
            -11 -10 1 1 -10 hvcurveto
            -21 -118 rlineto
            -2 19 18 -1 18 hhcurveto
            294 236 200 321 259 -154 145 -191 -184 -140 -137 -186 hvcurveto
            return
          </CharString>
          <CharString index="87">
            72 906 608 rmoveto
            58 262 rlineto
            -166 hlineto
            -125 -80 67 97 9 hvcurveto
            99 8 93 66 128 hhcurveto
            131 86 -68 -101 -4 hvcurveto
            332 hlineto
            259 37 -218 179 -352 hhcurveto
            -335 -225 -159 -248 -18 hvcurveto
            -10 -146 82 -118 137 -36 -2 -7 rcurveline
            -211 -20 -151 -144 -10 -193 rrcurveto
            -249 -14 228 -173 345 hhcurveto
            352 226 173 302 44 hvcurveto
            -353 hlineto
            -120 -15 -95 -72 -148 hhcurveto
            -131 -89 74 100 6 hvcurveto
            108 6 102 68 156 hhcurveto
            return
          </CharString>
          <CharString index="88">
            -44 callsubr
            228 15 callsubr
            return
          </CharString>
          <CharString index="89">
            rmoveto
            -26 -120 rlineto
            -7 -30 -8 -42 -45 vvcurveto
            -146 85 -134 266 vhcurveto
            124 hlineto
            53 248 rlineto
            -44 hlineto
            -92 -40 29 79 25 5 31 7 35 hvcurveto
            33 152 rlineto
            5 27 4 27 24 vvcurveto
            96 -50 76 -167 18 vhcurveto
            5 19 180 16 101 71 33 150 rlinecurve
            40 184 rlineto
            147 32 52 51 120 hhcurveto
            44 hlineto
            53 250 rlineto
            -124 hlineto
            -295 -144 -98 -286 -63 hvcurveto
            -29 -133 rlineto
            -156 -34 -69 -50 -146 hhcurveto
            -65 -310 rlineto
            131 41 -42 -76 -26 -4 -29 -7 -32 hvcurveto
            endchar
          </CharString>
          <CharString index="90">
            1089 rmoveto
            -342 hlineto
            -139 -655 rlineto
            -116 -25 -75 -72 -90 hhcurveto
            -83 -51 57 81 23 3 24 6 28 hvcurveto
            132 630 rlineto
            -328 hlineto
            -138 -655 rlineto
            -118 -24 -76 -70 -90 hhcurveto
            -83 -50 57 81 23 2 24 6 28 hvcurveto
            132 630 rlineto
            -342 hlineto
            -143 -679 rlineto
            -10 -47 -4 -44 -40 vvcurveto
            -178 127 -127 176 160 125 80 114 79 vhcurveto
            7 hlineto
            -115 34 104 -79 138 hhcurveto
            137 126 79 120 66 hvcurveto
            7 hlineto
            -37 -173 rlineto
            331 hlineto
            endchar
          </CharString>
          <CharString index="91">
            513 rmoveto
            252 2 -180 180 -253 hhcurveto
            -151 -126 -62 -111 -82 hvcurveto
            -8 hlineto
            243 37 140 169 167 hhcurveto
            105 72 -57 -94 18 hvcurveto
            351 hlineto
            254 -4 -220 181 -304 hhcurveto
            -422 -304 -378 -499 -4 hvcurveto
            -419 -5 243 -197 337 hhcurveto
            334 254 232 306 3 hvcurveto
            -566 182 rmoveto
            126 91 -87 -122 -2 hvcurveto
            -134 -1 -101 -97 -138 hhcurveto
            -128 -95 91 120 2 hvcurveto
            130 1 107 99 138 hhcurveto
            endchar
          </CharString>
          <CharString index="92">
            608 rmoveto
            162 hlineto
            130 78 -61 -102 -110 -93 -77 -133 -147 -99 93 120 15 hvcurveto
            0 -337 vlineto
            -5 -24 -1 -20 -19 vvcurveto
            -261 -2 222 -172 347 hhcurveto
            340 248 188 258 151 -92 111 -155 38 hvcurveto
            1 7 rlineto
            198 26 141 147 181 vvcurveto
            226 -213 160 -302 -307 -224 -163 -258 -49 vhcurveto
            332 hlineto
            86 23 84 54 110 hhcurveto
            120 78 -60 -91 -104 -94 -63 -151 hvcurveto
            -171 hlineto
            endchar
          </CharString>
          <CharString index="93">
            735 rmoveto
            -127 -98 101 128 3 hvcurveto
            130 3 107 105 131 hhcurveto
            127 99 -100 -127 -3 hvcurveto
            -131 -3 -108 -106 -131 hhcurveto
            -585 180 rmoveto
            -233 174 -182 222 80 61 18 40 55 vhcurveto
            17 -1 -17 -28 -28 -35 -31 -34 rlinecurve
            -95 -102 -308 -280 -117 -78 rrcurveto
            498 hlineto
            76 64 217 211 54 55 rrcurveto
            227 231 110 214 211 vvcurveto
            292 -232 204 -335 -362 -266 -240 -327 vhcurveto
            endchar
          </CharString>
          <CharString index="94">
            rmoveto
            55 255 rlineto
            -780 18 callgsubr
            345 78 callsubr
            return
          </CharString>
          <CharString index="95">
            -87 callsubr
            endchar
          </CharString>
          <CharString index="96">
            270 hlineto
            152 712 rlineto
            -271 hlineto
            -197 -111 -46 -220 190 107 rlineto
            6 hlineto
            return
          </CharString>
          <CharString index="97">
            rmoveto
            249 hlineto
            285 315 rlineto
            -281 hlineto
            -658 -315 rmoveto
            248 hlineto
            286 315 rlineto
            -281 hlineto
            endchar
          </CharString>
          <CharString index="98">
            90 768 -352 rmoveto
            342 hlineto
            218 1020 rlineto
            9 45 4 49 39 vvcurveto
            191 -136 120 -196 -164 -137 -80 -142 -68 vhcurveto
            -7 hlineto
            -1 -2 16 0 vhcurveto
            127 -12 -76 70 -177 hhcurveto
            -64 -72 -7 -12 -37 hvcurveto
            -51 -239 rlineto
            6 15 24 3 21 hhcurveto
            52 23 -22 -47 -15 -3 -19 -5 -24 hvcurveto
            -154 -726 60 callgsubr
            136 638 rlineto
            124 26 90 79 110 hhcurveto
            95 69 -61 -91 -23 -3 -24 -5 -25 hvcurveto
            return
          </CharString>
          <CharString index="99">
            233 1452 508 rmoveto
            -358 hlineto
            -146 -49 -110 -95 -151 hhcurveto
            -167 -113 121 204 8 hvcurveto
            507 hlineto
            58 272 rlineto
            -530 hlineto
            186 50 148 123 165 hhcurveto
            153 103 -94 -151 9 hvcurveto
            358 hlineto
            4 0 12 11 vvcurveto
            309 -1 -258 218 -346 hhcurveto
            -450 -309 -335 -483 -20 hvcurveto
            -439 -27 236 -264 388 hhcurveto
            360 271 214 333 75 hvcurveto
            return
          </CharString>
          <CharString index="100">
            627 hlineto
            60 280 rlineto
            -291 hlineto
            2 8 rlineto
            242 122 140 239 251 vvcurveto
            341 -255 228 -387 -460 -361 -283 -487 -163 71 -148 135 -101 vhcurveto
            -1 -7 rlineto
            -275 hlineto
            -59 -280 rlineto
            605 hlineto
            72 342 rlineto
            -121 85 -61 106 162 vvcurveto
            285 171 191 247 189 133 -128 -195 -225 -131 -186 -220 -95 vhcurveto
            endchar
          </CharString>
          <CharString index="101">
            rmoveto
            92 71 72 88 89 -71 71 -92 -93 -71 -71 -89 -88 71 -72 93 hvcurveto
            442 577 -77 callsubr
          </CharString>
          <CharString index="102">
            -97 callsubr
            endchar
          </CharString>
          <CharString index="103">
            -285 rmoveto
            330 hlineto
            123 580 rlineto
            -545 hlineto
            -64 -295 rlineto
            217 hlineto
            return
          </CharString>
          <CharString index="104">
            rmoveto
            267 hlineto
            284 265 rlineto
            -300 hlineto
            return
          </CharString>
          <CharString index="105" raw="1">
            7cf8f6f7 7415fb05 42edf724 f77af70b
            f73df737 f704d32a fb25fb77 fb0cfb40
            fb341ff7 00fa0f15 fc02fb9c fba6fc0c
            fbbaf761 fb59f7c6 f802f79c f7a6f80c
            f7b9fb61 f75afbc6 1ffd21fe a615f70e
            fb0efabd fabdfb0e f70e050b 
          </CharString>
          <CharString index="106" raw="1">
            c7f9aef7 9415fc14 068f9dc0 cbb5e4aa
            f705198a 89e0f7c0 8a8908f7 bb06fd7a
            fef015c7 f7ac05f9 44064ffb acf7091d
            f706f8ac 05fb3106 f745f9d5 05fe3006
            8c8dfb27 fca68c8d 5bfb4150 28416808
            3a06fb07 fcac050e  
          </CharString>
          <CharString index="107">
            rmoveto
            86 callsubr
            -296 -314 rlineto
            -190 hmoveto
            86 callsubr
            -295 -314 rlineto
            endchar
          </CharString>
          <CharString index="108">
            rmoveto
            -5 -21 -2 -22 -22 vvcurveto
            -146 109 -117 207 241 159 143 185 46 vhcurveto
            -215 hlineto
            -96 -23 -74 -64 -104 hhcurveto
            -90 -48 48 76 109 callsubr
          </CharString>
          <CharString index="109">
            -95 callsubr
            endchar
          </CharString>
          <CharString index="110" raw="1">
            f704faa1 fad715bd f77f05fe 1f0659fb
            7f055bfe d715f8fc 06f816f7 92f767f7
            dff799fb 54f72cfb d81ffb3d 06f70ef8
            d3c60af0 1cfb1c15 e0f82405 f72d06f7
            20e052fb 01fb1ffb 052cfb36 1f0e
          </CharString>
          <CharString index="111">
            rmoveto
            -137 265 rlineto
            -271 hlineto
            170 -265 rlineto
            return
          </CharString>
          <CharString index="112">
            245 56 callgsubr
            604 hlineto
            63 295 rlineto
            -971 -96 callsubr
            return
          </CharString>
          <CharString index="113">
            -104 callsubr
            endchar
          </CharString>
          <CharString index="114">
            rmoveto
            79 96 callsubr
            -79 72 callgsubr
            59 60 74 74 -59 60 -80 -25 callgsubr
            endchar
          </CharString>
          <CharString index="115">
            hmoveto
            347 hlineto
            49 234 rlineto
            180 hlineto
            61 286 rlineto
            -180 hlineto
            197 923 rlineto
            -529 hlineto
            -322 -370 -226 -270 -182 -248 -61 -321 rcurveline
            715 hlineto
            -339 280 rmoveto
            158 217 220 266 166 187 rrcurveto
            7 hlineto
            -144 -677 rlineto
            -408 hlineto
            endchar
          </CharString>
          <CharString index="116">
            -98 callsubr
            endchar
          </CharString>
          <CharString index="117">
            rmoveto
            276 hlineto
            228 331 rlineto
            -352 hlineto
            endchar
          </CharString>
          <CharString index="118">
            rmoveto
            272 hlineto
            329 322 rlineto
            -268 hlineto
            -174 -179 rlineto
            -8 hlineto
            -97 179 rlineto
            -243 hlineto
            return
          </CharString>
          <CharString index="119">
            -25 rmoveto
            423 304 387 540 340 -217 226 -329 -422 -301 -386 -539 -341 216 -227 326 hvcurveto
            -171 577 rmoveto
            340 156 291 182 121 68 -103 -187 -341 -158 -293 -183 -119 -67 105 188 vhcurveto
            endchar
          </CharString>
          <CharString index="120">
            rmoveto
            120 88 85 117 1 hvcurveto
            116 -89 81 -118 -120 -88 -84 -117 -117 88 -81 118 vhcurveto
            124 vmoveto
            -43 -32 31 43 46 32 32 45 43 32 -31 -44 hvcurveto
            -45 1 -33 -32 -45 hhcurveto
            86 538 rmoveto
            -155 -194 rlineto
            245 hlineto
            195 194 rlineto
            endchar
          </CharString>
          <CharString index="121">
            rmoveto
            211 173 174 211 210 -173 174 -211 -211 -173 -174 -210 -211 173 -174 211 hvcurveto
            endchar
          </CharString>
          <CharString index="122">
            91 -5 callgsubr
            return
          </CharString>
          <CharString index="123">
            rmoveto
            85 63 64 78 79 -63 64 -85 -86 -63 -64 -79 -78 63 -64 86 hvcurveto
            448 552 -84 callsubr
            endchar
          </CharString>
          <CharString index="124">
            106 callgsubr
            297 285 rlineto
            -286 hlineto
            return
          </CharString>
          <CharString index="125">
            -668 400 hmoveto
            -92 callgsubr
            342 1573 -105 callgsubr
          </CharString>
          <CharString index="126">
            -135 158 1090 rmoveto
            122 -1090 rlineto
            399 hlineto
            592 1090 106 callsubr
            -360 -785 rlineto
            -7 hlineto
            -32 785 rlineto
            return
          </CharString>
          <CharString index="127">
            -67 callgsubr
            endchar
          </CharString>
          <CharString index="128">
            160 56 callsubr
            return
          </CharString>
          <CharString index="129">
            hlineto
            112 525 rlineto
            -514 hlineto
            -60 -274 rlineto
            return
          </CharString>
          <CharString index="130" raw="1">
            a30a0e   
          </CharString>
          <CharString index="131">
            233 47 callsubr
            -87 -399 rlineto
            -52 -43 -71 -33 -71 hhcurveto
            -116 -49 69 126 27 hvcurveto
            62 289 rlineto
            -344 34 callgsubr
            -284 -61 121 -182 88 callgsubr
            41 77 76 hvcurveto
            10 hlineto
            -95 -446 rlineto
            return
          </CharString>
          <CharString index="132">
            103 83 83 43 callsubr
            -83 103 hvcurveto
            return
          </CharString>
          <CharString index="133">
            hlineto
            -192 -908 rlineto
            -160 -34 -99 -88 -144 hhcurveto
            return
          </CharString>
          <CharString index="134">
            341 -48 callsubr
            endchar
          </CharString>
          <CharString index="135">
            -91 callsubr
            endchar
          </CharString>
          <CharString index="136">
            17 callgsubr
            242 305 rmoveto
            84 62 63 77 77 -62 62 -84 -84 -61 -62 -77 -77 61 -63 84 hvcurveto
            423 hmoveto
            84 62 63 77 77 -62 62 -84 -84 -61 -62 -77 -77 61 -63 84 hvcurveto
            endchar
          </CharString>
          <CharString index="137">
            hmoveto
            350 hlineto
            50 234 rlineto
            166 hlineto
            63 292 rlineto
            -176 hlineto
            72 337 rlineto
            -337 hlineto
            -71 -329 rlineto
            -277 hlineto
            4 16 566 893 rlineto
            -385 hlineto
            -594 -909 -64 -300 rlineto
            683 hlineto
            endchar
          </CharString>
          <CharString index="138">
            rmoveto
            253 hlineto
            298 285 rlineto
            -287 hlineto
            187 -471 -77 callsubr
          </CharString>
          <CharString index="139">
            70 callgsubr
            -175 return
          </CharString>
          <CharString index="140">
            rlineto
            -367 90 callsubr
            return
          </CharString>
          <CharString index="141" raw="1">
            280a0e   
          </CharString>
          <CharString index="142">
            -307 -29 callsubr
            return
          </CharString>
          <CharString index="143">
            -94 callsubr
            endchar
          </CharString>
          <CharString index="144" raw="1">
            15fbd506 fd3c1cfb 7e05f7d5 06f917f7
            4415cbf7 c205fede 064bfbc2 051c04b7
            f89515f7 0d1dfedd 064bfbc1 050e
          </CharString>
          <CharString index="145">
            21 2 19 19 vvcurveto
            144 -124 91 -206 return
          </CharString>
          <CharString index="146">
            rmoveto
            51 -138 33 -205 2 -260 4 -494 -198 -397 -265 -261 rrcurveto
            368 hlineto
            282 274 168 398 420 vvcurveto
            240 -45 268 -80 155 vhcurveto
            endchar
          </CharString>
          <CharString index="147">
            -275 rmoveto
            -2 -7 -20 -1 -15 hhcurveto
            -86 -48 33 59 57 49 64 147 70 hvcurveto
            -190 24 rlineto
            -157 -62 -96 -107 -117 vvcurveto
            -124 110 -83 165 43 40 5 7 28 vhcurveto
            endchar
          </CharString>
          <CharString index="148">
            -31 callgsubr
            -178 -833 rlineto
            -364 hlineto
            177 833 rlineto
            -344 18 callgsubr
            return
          </CharString>
          <CharString index="149">
            rmoveto
            62 271 rlineto
            -1067 hlineto
            -62 -271 rlineto
            144 620 rmoveto
            -64 -275 1134 299 60 255 -995 300 -66 -289 574 -134 -4 -21 rlineto
            endchar
          </CharString>
          <CharString index="150">
            103 103 -83 39 callgsubr
            return
          </CharString>
          <CharString index="151">
            195 -119 114 -205 -227 -163 -187 -264 return
          </CharString>
          <CharString index="152">
            rlineto
            -324 hlineto
            return
          </CharString>
          <CharString index="153">
            -285 rmoveto
            330 hlineto
            123 580 rlineto
            -437 34 callgsubr
            108 hlineto
            return
          </CharString>
          <CharString index="154">
            1089 -31 callgsubr
            return
          </CharString>
          <CharString index="155">
            hmoveto
            -68 callgsubr
            -1295 90 callgsubr
            243 56 callgsubr
            562 hlineto
            -244 -1148 rlineto
            endchar
          </CharString>
          <CharString index="156">
            111 callgsubr
            -326 hlineto
            -295 -314 rlineto
            -229 hmoveto
            92 73 73 88 89 -73 73 -92 -30 callgsubr
          </CharString>
          <CharString index="157">
            rlineto
            247 hlineto
            return
          </CharString>
          <CharString index="158">
            rmoveto
            147 688 rlineto
            -340 hlineto
            -147 -688 rlineto
            115 -1067 rmoveto
            145 689 rlineto
            -340 hlineto
            -145 -689 rlineto
            endchar
          </CharString>
          <CharString index="159">
            rlineto
            243 hlineto
            return
          </CharString>
          <CharString index="160">
            rmoveto
            36 82 callgsubr
            return
          </CharString>
          <CharString index="161">
            231 47 callsubr
            return
          </CharString>
          <CharString index="162">
            rmoveto
            374 1755 rlineto
            -608 hlineto
            -55 -256 67 callsubr
            -264 -1242 rlineto
            -268 hlineto
            -55 -257 rlineto
            endchar
          </CharString>
          <CharString index="163">
            1832 -54 callsubr
            return
          </CharString>
          <CharString index="164" raw="1">
            15869dd2 85ba1bf7 8cf40abe 1f8e98fb
            dcd78981 0526765f 64371b7b 0b
          </CharString>
          <CharString index="165">
            69 callsubr
            -109 88 callsubr
            159 511 rlineto
            return
          </CharString>
          <CharString index="166">
            rlineto
            -367 hlineto
            return
          </CharString>
          <CharString index="167">
            25 rmoveto
            -312 hlineto
            -66 -310 117 callgsubr
            return
          </CharString>
          <CharString index="168">
            -60 -60 -74 -74 60 -60 return
          </CharString>
          <CharString index="169">
            hmoveto
            367 -57 callgsubr
            -366 hlineto
            -421 -250 -69 -328 411 244 rlineto
            7 hlineto
            endchar
          </CharString>
          <CharString index="170">
            hmoveto
            399 hlineto
            829 1160 60 283 rlineto
            -1066 hlineto
            -60 -282 rlineto
            680 hlineto
            -1 -8 rlineto
            endchar
          </CharString>
          <CharString index="171">
            -110 404 hmoveto
            5 callsubr
            return
          </CharString>
          <CharString index="172">
            39 callgsubr
            -82 103 hvcurveto
            return
          </CharString>
          <CharString index="173">
            rmoveto
            99 callsubr
          </CharString>
          <CharString index="174">
            rlineto
            268 hlineto
            return
          </CharString>
          <CharString index="175">
            -88 -23 -3 -24 -6 return
          </CharString>
          <CharString index="176">
            1443 rmoveto
            return
          </CharString>
          <CharString index="177" raw="1">
            fbb115f7 e006f798 f89499cf 05fcd9ad
            1df74706 0b  
          </CharString>
          <CharString index="178">
            -1559 -102 callsubr
          </CharString>
          <CharString index="179">
            vvcurveto
            -109 92 -80 149 return
          </CharString>
          <CharString index="180">
            117 178 38 vhcurveto
            -247 hlineto
            -70 -18 -64 -42 -81 hhcurveto
            -72 -44 34 58 6 0 7 return
          </CharString>
          <CharString index="181">
            252 -13 22 callgsubr
            return
          </CharString>
          <CharString index="182" raw="1">
            fbb115f7 de06f70f f8d805fc b6064bfb
            bb05f76e 060b  
          </CharString>
          <CharString index="183">
            2192 rmoveto
            -5 -21 -2 -20 -19 vvcurveto
            -143 return
          </CharString>
          <CharString index="184">
            -39 -85 hhcurveto
            -16 -18 1 1 -9 hvcurveto
            return
          </CharString>
          <CharString index="185">
            hlineto
            177 834 rlineto
            return
          </CharString>
          <CharString index="186">
            rlineto
            -345 hlineto
            return
          </CharString>
          <CharString index="187">
            rmoveto
            104 85 79 101 100 -85 79 -104 -105 -84 -79 -100 -101 84 -79 105 hvcurveto
            endchar
          </CharString>
          <CharString index="188">
            -39 callgsubr
            endchar
          </CharString>
          <CharString index="189">
            hlineto
            245 56 callgsubr
            return
          </CharString>
          <CharString index="190">
            hlineto
            35 165 rlineto
            -1847 hlineto
            62 291 rmoveto
            1847 hlineto
            35 return
          </CharString>
          <CharString index="191">
            496 851 rmoveto
            125 592 rlineto
            -297 hlineto
            -126 -592 rlineto
            return
          </CharString>
          <CharString index="192">
            rmoveto
            807 1755 rlineto
            -341 hlineto
            -807 -1755 rlineto
            endchar
          </CharString>
          <CharString index="193">
            337 314 45 callsubr
            return
          </CharString>
          <CharString index="194">
            -132 -209 -308 return
          </CharString>
          <CharString index="195">
            -511 rlineto
            236 hlineto
            return
          </CharString>
          <CharString index="196">
            618 1603 17 callgsubr
            return
          </CharString>
          <CharString index="197">
            -96 callsubr
            366 hlineto
            return
          </CharString>
          <CharString index="198">
            239 238 334 228 -136 156 -242 -124 return
          </CharString>
          <CharString index="199">
            hlineto
            -295 -314 rlineto
            endchar
          </CharString>
          <CharString index="200">
            rmoveto
            1373 hlineto
            64 302 rlineto
            -1373 hlineto
            endchar
          </CharString>
          <CharString index="201">
            rlineto
            -10 -46 -2 -41 -27 vvcurveto
            return
          </CharString>
          <CharString index="202">
            -251 rmoveto
            321 hlineto
            return
          </CharString>
          <CharString index="203">
            60 60 -52 callgsubr
            return
          </CharString>
          <CharString index="204">
            rlineto
            -282 hlineto
            return
          </CharString>
          <CharString index="205">
            rmoveto
            329 hlineto
            -52 1755 rlineto
            -328 hlineto
            endchar
          </CharString>
          <CharString index="206">
            344 -57 callgsubr
            -344 hlineto
            endchar
          </CharString>
          <CharString index="207">
            671 rlineto
            10 return
          </CharString>
          <CharString index="208">
            rlineto
            416 hlineto
            return
          </CharString>
          <CharString index="209">
            -137 -162 -246 -16 hvcurveto
            235 hlineto
            86 13 return
          </CharString>
          <CharString index="210">
            hlineto
            270 448 rlineto
            10 hlineto
            -108 -466 rlineto
            return
          </CharString>
          <CharString index="211">
            hhcurveto
            247 105 callsubr
            return
          </CharString>
          <CharString index="212">
            136 96 211 return
          </CharString>
          <CharString index="213">
            rlineto
            -368 hlineto
            return
          </CharString>
          <CharString index="214">
            rlineto
            246 hlineto
            56 261 rlineto
            -246 hlineto
            52 return
          </CharString>
          <CharString index="215">
            rmoveto
            747 420 -568 420 rlineto
            endchar
          </CharString>
          <CharString index="216">
            12 2 12 2 12 hvcurveto
            endchar
          </CharString>
          <CharString index="217">
            15 3 24 3 17 hvcurveto
            return
          </CharString>
          <CharString index="218">
            hhcurveto
            73 44 -34 -58 -6 return
          </CharString>
          <CharString index="219">
            rlineto
            267 hlineto
            175 return
          </CharString>
          <CharString index="220">
            -78 1264 1090 rmoveto
            -327 hlineto
            -5 return
          </CharString>
          <CharString index="221">
            rmoveto
            -840 hlineto
            267 -723 rlineto
            endchar
          </CharString>
          <CharString index="222">
            -56 -264 rlineto
            return
          </CharString>
          <CharString index="223">
            rlineto
            -351 hlineto
            return
          </CharString>
          <CharString index="224">
            rlineto
            375 hlineto
            return
          </CharString>
          <CharString index="225">
            -285 rmoveto
            332 hlineto
            259 512 return
          </CharString>
          <CharString index="226">
            hmoveto
            345 hlineto
            return
          </CharString>
          <CharString index="227">
            rlineto
            239 hlineto
            return
          </CharString>
          <CharString index="228">
            rlineto
            -373 hlineto
            return
          </CharString>
        <CharString name=".notdef">
          782 -88 -494 rmoveto
          1847 83 callsubr
          165 rlineto
          -1847 hlineto
          62 290 rmoveto
          1847 hlineto
          35 166 rlineto
          -1847 hlineto
          61 291 rmoveto
          1848 83 callsubr
          164 rlineto
          -1847 hlineto
          61 291 rmoveto
          1847 hlineto
          36 165 rlineto
          -1848 hlineto
          endchar
        </CharString>
        <CharString name=".null">
          endchar
        </CharString>
        <CharString name="A">
          180 890 -103 callsubr
          endchar
        </CharString>
        <CharString name="AE">
          769 1126 -41 callsubr
          endchar
        </CharString>
        <CharString name="AEacute">
          769 1126 -41 callsubr
          682 1229 -84 callgsubr
        </CharString>
        <CharString name="AEmacron">
          769 1126 -41 callsubr
          946 1451 -84 callsubr
          endchar
        </CharString>
        <CharString name="Aacute">
          180 890 -103 callsubr
          174 1239 -84 callgsubr
        </CharString>
        <CharString name="Abreve">
          180 890 -103 callsubr
          -282 1548 -74 callgsubr
          endchar
        </CharString>
        <CharString name="Abreveacute">
          180 890 -103 callsubr
          -45 1586 -3 callsubr
          -178 -630 -42 callgsubr
        </CharString>
        <CharString name="Abrevedotbelow">
          180 890 -103 callsubr
          -282 1548 -74 callgsubr
          -305 -2335 -102 callsubr
        </CharString>
        <CharString name="Abrevegrave">
          180 890 -103 callsubr
          234 1586 21 callgsubr
        </CharString>
        <CharString name="Abrevehookabove">
          180 890 -103 callsubr
          -90 1733 rmoveto
          8 21 34 5 36 hhcurveto
          54 33 -22 -37 -36 -35 -32 -54 -16 hvcurveto
          73 -106 rlineto
          118 35 90 92 103 vvcurveto
          96 -87 66 -127 -38 -45 -6 -11 -40 vhcurveto
          85 -651 -42 callgsubr
        </CharString>
        <CharString name="Abrevetilde">
          180 890 -103 callsubr
          256 1577 rmoveto
          134 113 110 169 35 hvcurveto
          -182 hlineto
          -68 -16 -35 -38 -43 -73 -41 122 -137 hhcurveto
          -136 -110 -106 -170 -35 hvcurveto
          182 hlineto
          65 14 37 38 41 72 42 -122 138 hhcurveto
          -228 -356 -42 callgsubr
        </CharString>
        <CharString name="Acaron">
          180 890 -103 callsubr
          -108 1225 -86 callsubr
        </CharString>
        <CharString name="Acircumflex">
          180 890 -103 callsubr
          229 1552 -67 callsubr
        </CharString>
        <CharString name="Acircumflexacute">
          2 callgsubr
          -37 71 -3 callsubr
          endchar
        </CharString>
        <CharString name="Acircumflexdotbelow">
          180 890 -103 callsubr
          229 1552 -78 callsubr
          -802 -2012 -102 callsubr
        </CharString>
        <CharString name="Acircumflexgrave">
          2 callgsubr
          237 71 4 callsubr
          endchar
        </CharString>
        <CharString name="Acircumflexhookabove">
          2 callgsubr
          7 169 rmoveto
          11 32 37 7 35 hhcurveto
          56 37 -25 -39 -47 -38 -41 -58 -20 hvcurveto
          75 -120 rlineto
          132 51 96 103 125 vvcurveto
          104 -86 64 -135 -52 -60 -9 -16 -38 vhcurveto
          endchar
        </CharString>
        <CharString name="Acircumflextilde">
          180 890 -103 callsubr
          254 1577 -45 callgsubr
        </CharString>
        <CharString name="Acyrillic">
          190 895 -103 callsubr
          endchar
        </CharString>
        <CharString name="Adblgrave">
          180 890 -103 callsubr
          -321 1239 rmoveto
          255 hlineto
          -163 314 rlineto
          -296 hlineto
          639 -314 -46 callsubr
        </CharString>
        <CharString name="Adieresis">
          180 890 -103 callsubr
          -143 1256 -105 callgsubr
        </CharString>
        <CharString name="Adieresismacron">
          180 890 -103 callsubr
          -155 1502 rmoveto
          -39 callgsubr
          661 279 -84 callsubr
          -203 -114 rmoveto
          81 callsubr
        </CharString>
        <CharString name="Adotaccent">
          180 890 -103 callsubr
          73 1288 -102 callsubr
        </CharString>
        <CharString name="Adotbelow">
          180 890 -103 callsubr
          -381 -787 -102 callsubr
        </CharString>
        <CharString name="Adotmacron">
          180 890 -103 callsubr
          58 1229 16 callsubr
        </CharString>
        <CharString name="Agrave">
          180 890 -103 callsubr
          -99 1239 -46 callsubr
        </CharString>
        <CharString name="Ahookabove">
          180 890 -103 callsubr
          -125 1480 -69 callgsubr
        </CharString>
        <CharString name="Ainvertedbreve">
          180 890 -103 callsubr
          402 1220 -59 callgsubr
        </CharString>
        <CharString name="Alphagreek">
          180 890 -103 callsubr
          endchar
        </CharString>
        <CharString name="Alphatonosgreek">
          180 890 -103 callsubr
          -874 795 rmoveto
          276 hlineto
          227 331 116 callsubr
          endchar
        </CharString>
        <CharString name="Amacron">
          180 890 -103 callsubr
          438 1461 -84 callsubr
          endchar
        </CharString>
        <CharString name="Aogonek">
          180 1178 -278 rmoveto
          -5 -13 -30 -5 -30 hhcurveto
          -68 -37 28 46 82 109 82 213 61 hvcurveto
          25 8 -164 1424 rlineto
          -449 hlineto
          -803 -29 callsubr
          388 hlineto
          162 317 rlineto
          471 hlineto
          25 -320 rlineto
          -135 -62 -105 -113 -106 vvcurveto
          -119 102 -75 141 67 57 9 16 37 vhcurveto
          -252 1574 rmoveto
          8 hlineto
          40 -540 45 callsubr
          endchar
        </CharString>
        <CharString name="Aring">
          180 890 -103 callsubr
          90 1252 -89 callgsubr
        </CharString>
        <CharString name="Aringacute">
          180 890 -103 callsubr
          62 1198 13 callsubr
        </CharString>
        <CharString name="Aringbelow">
          180 890 -103 callsubr
          -370 -852 -89 callgsubr
        </CharString>
        <CharString name="Atilde">
          180 890 -103 callsubr
          197 1229 -104 callgsubr
          endchar
        </CharString>
        <CharString name="B">
          100 778 -83 callsubr
          endchar
        </CharString>
        <CharString name="Bdotaccent">
          100 778 -83 callsubr
          193 1345 -102 callsubr
        </CharString>
        <CharString name="Bdotbelow">
          100 778 -83 callsubr
          -205 -730 -102 callsubr
        </CharString>
        <CharString name="Becyrillic">
          77 653 hmoveto
          393 251 216 311 247 -190 144 -319 hvcurveto
          -187 hlineto
          49 230 rlineto
          653 hlineto
          63 295 rlineto
          -1022 hlineto
          -306 -29 callsubr
          426 278 rmoveto
          80 373 rlineto
          181 hlineto
          131 75 -55 -102 -126 -115 -90 -164 hvcurveto
          endchar
        </CharString>
        <CharString name="Betagreek">
          100 778 -83 callsubr
          endchar
        </CharString>
        <CharString name="Blinebelow">
          100 778 -83 callsubr
          174 -486 -84 callsubr
          endchar
        </CharString>
        <CharString name="C">
          241 1186 889 -96 callgsubr
          endchar
        </CharString>
        <CharString name="Cacute">
          241 1186 889 -96 callgsubr
          -66 667 -84 callgsubr
        </CharString>
        <CharString name="Ccaron">
          241 1186 889 -96 callgsubr
          -348 653 -86 callsubr
        </CharString>
        <CharString name="Ccedilla">
          241 1543 889 rmoveto
          2 14 2 19 -1 23 rrcurveto
          307 -4 -246 216 -340 hhcurveto
          -494 -324 -353 -529 -333 198 -227 316 -43 hvcurveto
          -63 -86 -26 -113 rlineto
          58 hlineto
          89 32 -12 -33 -34 -40 -18 -75 -42 -45 6 9 -30 hvcurveto
          -32 -150 rlineto
          -11 29 59 -7 59 hhcurveto
          180 129 95 132 86 -53 53 -97 9 hvcurveto
          50 69 332 25 251 212 53 306 rlinecurve
          -357 hlineto
          -150 -48 -123 -93 -153 hhcurveto
          -170 -104 125 204 327 168 234 239 147 112 -101 -141 5 hvcurveto
          -25 1 -6 -1 -6 vhcurveto
          endchar
        </CharString>
        <CharString name="Ccedillaacute">
          241 1457 1870 rmoveto
          -326 hlineto
          -295 -314 rlineto
          284 hlineto
          423 -667 rmoveto
          2 14 2 19 -1 23 rrcurveto
          307 -4 -246 216 -340 hhcurveto
          -494 -324 -353 -529 -333 198 -227 316 -43 hvcurveto
          -63 -86 -26 -113 rlineto
          58 hlineto
          89 32 -12 -33 -34 -40 -18 -75 -42 -45 6 9 -30 hvcurveto
          -32 -150 rlineto
          -11 29 59 -7 59 hhcurveto
          180 129 95 132 86 -53 53 -97 9 hvcurveto
          50 69 332 25 251 212 53 306 rlinecurve
          -357 hlineto
          -150 -48 -123 -93 -153 hhcurveto
          -170 -104 125 204 327 168 234 239 147 112 -101 -141 5 hvcurveto
          -25 1 -6 -1 -6 vhcurveto
          endchar
        </CharString>
        <CharString name="Ccircumflex">
          241 1186 889 -96 callgsubr
          -11 980 -67 callsubr
        </CharString>
        <CharString name="Cdotaccent">
          241 1186 889 -96 callgsubr
          -167 716 -102 callsubr
        </CharString>
        <CharString name="Checyrillic">
          12 callgsubr
          endchar
        </CharString>
        <CharString name="Chigreek">
          169 -54 33 callgsubr
        </CharString>
        <CharString name="D">
          207 340 1443 28 callsubr
        </CharString>
        <CharString name="Dcaron">
          207 340 1443 -91 callsubr
          241 1248 -86 callsubr
        </CharString>
        <CharString name="Dcircumflexbelow">
          207 340 1443 -91 callsubr
          220 -459 -64 callsubr
        </CharString>
        <CharString name="Dcommaaccent">
          207 340 1443 -91 callsubr
          -41 -769 -39 callsubr
        </CharString>
        <CharString name="Dcroat">
          207 466 294 rmoveto
          61 286 rlineto
          221 hlineto
          63 295 rlineto
          -222 hlineto
          58 274 rlineto
          166 hlineto
          185 104 -119 -193 -333 -182 -210 -255 hvcurveto
          -325 1149 rmoveto
          -121 -568 rlineto
          -116 hlineto
          -63 -295 rlineto
          116 hlineto
          -123 -580 rlineto
          682 hlineto
          457 307 367 516 353 -236 207 -346 hvcurveto
          endchar
        </CharString>
        <CharString name="Ddotaccent">
          207 340 1443 -91 callsubr
          422 1311 -102 callsubr
        </CharString>
        <CharString name="Ddotbelow">
          207 340 1443 -91 callsubr
          56 -764 -102 callsubr
        </CharString>
        <CharString name="Decyrillic">
          315 627 644 rmoveto
          141 505 rlineto
          405 hlineto
          -181 -853 rlineto
          -525 hlineto
          4 19 69 67 44 108 43 154 rlinecurve
          -376 -644 rmoveto
          895 hlineto
          -61 -285 rlineto
          330 hlineto
          124 581 rlineto
          -180 hlineto
          244 1147 rlineto
          -1095 hlineto
          -210 -767 -55 -199 -46 -105 -114 -76 rlinecurve
          -98 hlineto
          -124 -581 rlineto
          329 hlineto
          endchar
        </CharString>
        <CharString name="Deltagreek">
          200 1315 hmoveto
          41 194 -162 1249 rlineto
          -449 hlineto
          -714 -1247 -41 -196 rlineto
          906 1145 rmoveto
          8 hlineto
          81 -843 -1 -7 rlineto
          -536 hlineto
          1 7 rlineto
          endchar
        </CharString>
        <CharString name="Djecyrillic">
          500 380 hmoveto
          368 hlineto
          98 462 rlineto
          76 55 107 61 111 hhcurveto
          128 79 -69 -114 -134 -107 -93 -148 -79 -39 9 2 -5 hvcurveto
          -59 -277 rlineto
          -2 6 61 -15 115 hhcurveto
          393 243 245 326 244 -164 185 -297 -130 -107 -45 -63 -75 hvcurveto
          -17 hlineto
          74 350 rlineto
          401 hlineto
          63 295 rlineto
          -1168 34 callgsubr
          400 hlineto
          endchar
        </CharString>
        <CharString name="Dlinebelow">
          207 340 1443 -91 callsubr
          435 -520 -84 callsubr
          endchar
        </CharString>
        <CharString name="Dzecyrillic">
          91 76 425 rmoveto
          -101 callsubr
          endchar
        </CharString>
        <CharString name="Dzhecyrillic">
          270 1333 hmoveto
          54 callgsubr
          -244 -1148 rlineto
          -562 hlineto
          244 56 callgsubr
          -366 -96 callsubr
          520 hlineto
          -61 -285 rlineto
          311 hlineto
          61 285 rlineto
          endchar
        </CharString>
        <CharString name="E">
          -75 1084 295 -101 callgsubr
          endchar
        </CharString>
        <CharString name="Eacute">
          -75 1084 295 -101 callgsubr
          -40 1556 -84 callgsubr
        </CharString>
        <CharString name="Ebreve">
          -75 1084 295 -101 callgsubr
          -496 1865 -74 callgsubr
          endchar
        </CharString>
        <CharString name="Ecaron">
          -75 1084 295 -101 callgsubr
          -322 1542 -86 callsubr
        </CharString>
        <CharString name="Ecedilla">
          -75 1265 1148 rmoveto
          63 295 rlineto
          -988 hlineto
          -307 -1443 rlineto
          415 hlineto
          -76 -103 -26 -113 rlineto
          58 hlineto
          89 32 -12 -33 -34 -40 -18 -75 -42 -45 6 9 -30 hvcurveto
          -32 -150 rlineto
          -11 29 59 -7 59 hhcurveto
          180 129 95 132 86 -53 53 -97 9 hvcurveto
          66 91 rlineto
          389 hlineto
          62 295 rlineto
          -622 hlineto
          63 295 rlineto
          584 hlineto
          58 270 rlineto
          -584 hlineto
          61 288 rlineto
          endchar
        </CharString>
        <CharString name="Ecedillabreve">
          -75 1067 1865 rmoveto
          -96 -23 -75 -64 -103 hhcurveto
          -90 -48 48 76 12 1 12 3 12 hvcurveto
          -206 hlineto
          -4 -21 -3 -22 -22 vvcurveto
          -146 110 -117 207 240 160 143 185 45 vhcurveto
          -16 -717 rmoveto
          63 295 rlineto
          -988 hlineto
          -307 -1443 rlineto
          415 hlineto
          -76 -103 -26 -113 rlineto
          58 hlineto
          89 32 -12 -33 -34 -40 -18 -75 -42 -45 6 9 -30 hvcurveto
          -32 -150 rlineto
          -11 29 59 -7 59 hhcurveto
          180 129 95 132 86 -53 53 -97 9 hvcurveto
          66 91 rlineto
          389 hlineto
          62 295 rlineto
          -622 hlineto
          63 295 rlineto
          584 hlineto
          58 270 rlineto
          -584 hlineto
          61 288 rlineto
          endchar
        </CharString>
        <CharString name="Ecircumflex">
          -75 1084 295 -101 callgsubr
          15 1869 -67 callsubr
        </CharString>
        <CharString name="Ecircumflexacute">
          -75 1084 295 -101 callgsubr
          -272 56 callsubr
          -37 71 -3 callsubr
          endchar
        </CharString>
        <CharString name="Ecircumflexbelow">
          -75 1084 295 -101 callgsubr
          -376 -165 -64 callsubr
        </CharString>
        <CharString name="Ecircumflexdotbelow">
          -75 1084 295 -101 callgsubr
          15 1869 -78 callsubr
          -747 -2012 -102 callsubr
        </CharString>
        <CharString name="Ecircumflexgrave">
          -75 1084 295 -101 callgsubr
          -272 56 callsubr
          237 71 4 callsubr
          endchar
        </CharString>
        <CharString name="Ecircumflexhookabove">
          -75 1084 295 -101 callgsubr
          -272 56 callsubr
          7 169 rmoveto
          11 32 37 7 35 hhcurveto
          56 37 -25 -39 -47 -38 -41 -58 -20 hvcurveto
          75 -120 rlineto
          132 51 96 103 125 vvcurveto
          104 -86 64 -135 -52 -60 -9 -16 -38 vhcurveto
          endchar
        </CharString>
        <CharString name="Ecircumflextilde">
          -75 1084 295 -101 callgsubr
          40 1894 -45 callgsubr
        </CharString>
        <CharString name="Ecyrillic">
          -8 callsubr
          endchar
        </CharString>
        <CharString name="Edblgrave">
          -75 1084 295 -101 callgsubr
          -535 1556 rmoveto
          255 hlineto
          -163 314 rlineto
          -296 hlineto
          639 -314 -46 callsubr
        </CharString>
        <CharString name="Edieresis">
          -75 1084 295 -101 callgsubr
          -357 1573 -105 callgsubr
        </CharString>
        <CharString name="Edotaccent">
          -75 1084 295 -101 callgsubr
          -140 1605 -102 callsubr
        </CharString>
        <CharString name="Edotbelow">
          -75 1084 295 -101 callgsubr
          -540 -470 -102 callsubr
        </CharString>
        <CharString name="Efcyrillic">
          615 1030 -35 rmoveto
          33 155 rlineto
          499 17 322 268 396 vvcurveto
          310 -217 201 -348 13 vhcurveto
          33 153 rlineto
          -363 hlineto
          -33 -153 rlineto
          -499 -17 -321 -267 -400 vvcurveto
          -306 216 -201 348 -14 vhcurveto
          -33 -155 rlineto
          -154 690 rmoveto
          215 161 157 225 13 vhcurveto
          -135 -634 rlineto
          -161 10 -90 92 147 vvcurveto
          994 127 rmoveto
          -207 -160 -156 -227 -13 vhcurveto
          136 633 rlineto
          161 -10 90 -92 -155 vvcurveto
          endchar
        </CharString>
        <CharString name="Egrave">
          -75 1084 295 -101 callgsubr
          -313 1556 -46 callsubr
        </CharString>
        <CharString name="Ehookabove">
          -75 1084 295 -101 callgsubr
          -339 1797 -69 callgsubr
        </CharString>
        <CharString name="Einvertedbreve">
          -75 1084 295 -101 callgsubr
          188 1537 -59 callgsubr
        </CharString>
        <CharString name="Elcyrillic">
          224 1287 hmoveto
          -46 callgsubr
        </CharString>
        <CharString name="Emacron">
          -75 1084 295 -101 callgsubr
          224 1778 -84 callsubr
          endchar
        </CharString>
        <CharString name="Emacronacute">
          -75 1084 295 -101 callgsubr
          186 1603 17 callgsubr
          284 300 rmoveto
          267 hlineto
          283 110 callgsubr
        </CharString>
        <CharString name="Emacrongrave">
          -75 1084 295 -101 callgsubr
          186 1603 17 callgsubr
          553 300 rmoveto
          -138 265 rlineto
          -271 hlineto
          171 -265 rlineto
          endchar
        </CharString>
        <CharString name="Emcyrillic">
          560 364 20 callsubr
        </CharString>
        <CharString name="Encyrillic">
          284 1346 -4 callgsubr
        </CharString>
        <CharString name="Eogonek">
          -75 33 hmoveto
          675 hlineto
          -1 -4 rlineto
          -135 -61 -93 -115 -104 vvcurveto
          -116 97 -78 146 66 58 9 16 37 vhcurveto
          37 175 rlineto
          -6 -14 -33 -4 -27 hhcurveto
          -66 -38 27 47 75 95 82 142 48 hvcurveto
          44 12 61 292 rlineto
          -622 hlineto
          63 295 rlineto
          584 hlineto
          58 270 rlineto
          -584 hlineto
          61 288 rlineto
          621 hlineto
          63 295 rlineto
          -988 hlineto
          endchar
        </CharString>
        <CharString name="Epsilongreek">
          -75 1084 295 -101 callgsubr
          endchar
        </CharString>
        <CharString name="Epsilontonosgreek">
          363 153 5 callgsubr
          1217 -1148 -101 callgsubr
          endchar
        </CharString>
        <CharString name="Ercyrillic">
          70 345 -61 callsubr
          endchar
        </CharString>
        <CharString name="Ereversedcyrillic">
          -82 callsubr
          endchar
        </CharString>
        <CharString name="Escyrillic">
          251 1191 889 -96 callgsubr
          endchar
        </CharString>
        <CharString name="Etagreek">
          274 1341 -4 callgsubr
        </CharString>
        <CharString name="Etatonosgreek">
          712 153 5 callgsubr
          1474 -1443 -28 callgsubr
        </CharString>
        <CharString name="Eth">
          207 466 294 rmoveto
          61 286 rlineto
          221 hlineto
          63 295 rlineto
          -222 hlineto
          58 274 rlineto
          166 hlineto
          185 104 -119 -193 -333 -182 -210 -255 hvcurveto
          -325 1149 rmoveto
          -121 -568 rlineto
          -116 hlineto
          -63 -295 rlineto
          116 hlineto
          -123 -580 rlineto
          682 hlineto
          457 307 367 516 353 -236 207 -346 hvcurveto
          endchar
        </CharString>
        <CharString name="Etilde">
          -75 1084 295 -101 callgsubr
          -17 1546 -104 callgsubr
          endchar
        </CharString>
        <CharString name="Etildebelow">
          -75 1084 295 -101 callgsubr
          -402 -460 -104 callgsubr
          endchar
        </CharString>
        <CharString name="Euro">
          106 1492 1413 rmoveto
          22 -49 -140 37 -163 hhcurveto
          -394 -287 -213 -319 -112 hvcurveto
          -144 hlineto
          -37 -170 rlineto
          139 hlineto
          -5 -40 -4 -42 -1 -42 rrcurveto
          -154 hlineto
          -38 -170 rlineto
          207 hlineto
          -314 66 285 -188 414 hhcurveto
          33 71 7 4 21 hvcurveto
          65 298 rlineto
          -8 -23 -65 -4 -32 hhcurveto
          -239 -146 71 134 -59 hvcurveto
          472 hlineto
          37 170 rlineto
          -539 hlineto
          1 43 4 42 8 39 rrcurveto
          553 hlineto
          38 170 rlineto
          -530 hlineto
          139 80 141 88 191 hhcurveto
          125 104 -30 -18 43 hvcurveto
          endchar
        </CharString>
        <CharString name="F">
          -117 414 14 callgsubr
          endchar
        </CharString>
        <CharString name="Fdotaccent">
          -117 414 14 callgsubr
          866 1605 -102 callsubr
        </CharString>
        <CharString name="G">
          -93 callgsubr
          endchar
        </CharString>
        <CharString name="Gacute">
          -93 callgsubr
          -395 949 -84 callgsubr
        </CharString>
        <CharString name="Gammagreek">
          -137 414 hmoveto
          244 56 callgsubr
          580 hlineto
          63 295 rlineto
          -961 -96 callsubr
          endchar
        </CharString>
        <CharString name="Gbreve">
          -93 callgsubr
          -851 1258 -74 callgsubr
          endchar
        </CharString>
        <CharString name="Gcaron">
          -93 callgsubr
          -677 935 -86 callsubr
        </CharString>
        <CharString name="Gcircumflex">
          -93 callgsubr
          -340 1262 -67 callsubr
        </CharString>
        <CharString name="Gcommaaccent">
          -93 callgsubr
          -859 -1082 -39 callsubr
        </CharString>
        <CharString name="Gdotaccent">
          -93 callgsubr
          -496 998 -102 callsubr
        </CharString>
        <CharString name="Gecyrillic">
          64 callsubr
          endchar
        </CharString>
        <CharString name="Geupturncyrillic">
          -110 649 1148 rmoveto
          604 78 callgsubr
          -345 hlineto
          -60 -285 rlineto
          -627 90 callgsubr
          endchar
        </CharString>
        <CharString name="Gjecyrillic">
          64 callsubr
          940 1556 -84 callgsubr
        </CharString>
        <CharString name="Gmacron">
          -93 callgsubr
          -131 1171 -84 callsubr
          endchar
        </CharString>
        <CharString name="H">
          274 1341 -4 callgsubr
        </CharString>
        <CharString name="Hardsigncyrillic">
          320 904 hmoveto
          388 256 218 339 282 -190 161 -319 hvcurveto
          -170 hlineto
          95 443 rlineto
          -705 hlineto
          -63 -294 rlineto
          338 hlineto
          -245 -1149 rlineto
          674 718 rmoveto
          136 82 -66 -124 -148 -114 -102 -163 hvcurveto
          -188 hlineto
          94 440 rlineto
          endchar
        </CharString>
        <CharString name="Hbar">
          274 1152 875 rmoveto
          -559 hlineto
          36 168 rlineto
          559 hlineto
          534 243 rmoveto
          -107 hlineto
          33 157 rlineto
          -375 hlineto
          -33 -157 rlineto
          -559 hlineto
          34 157 rlineto
          -375 hlineto
          -33 -157 rlineto
          -109 hlineto
          -52 -243 rlineto
          109 hlineto
          -222 -1043 rlineto
          375 hlineto
          124 584 rlineto
          559 hlineto
          -125 -584 rlineto
          375 hlineto
          222 1043 rlineto
          107 hlineto
          endchar
        </CharString>
        <CharString name="Hbrevebelow">
          274 1341 hmoveto
          -94 callsubr
          -681 -145 1 callsubr
        </CharString>
        <CharString name="Hcaron">
          274 1341 hmoveto
          -94 callsubr
          -87 1542 -86 callsubr
        </CharString>
        <CharString name="Hcedilla">
          274 1273 1443 rmoveto
          -121 -568 rlineto
          -559 hlineto
          122 568 rlineto
          -375 hlineto
          -307 -1443 rlineto
          190 hlineto
          -76 -103 -26 -113 rlineto
          58 hlineto
          89 32 -12 -33 -34 -40 -18 -75 -42 -45 6 9 -30 hvcurveto
          -32 -150 rlineto
          -11 29 59 -7 59 hhcurveto
          180 129 95 132 86 -53 53 -97 9 hvcurveto
          66 91 124 584 rlineto
          559 hlineto
          -125 -584 rlineto
          375 hlineto
          307 1443 rlineto
          endchar
        </CharString>
        <CharString name="Hcircumflex">
          274 1341 hmoveto
          -94 callsubr
          250 1869 -67 callsubr
        </CharString>
        <CharString name="Hdieresis">
          274 1341 hmoveto
          -94 callsubr
          -122 1573 -105 callgsubr
        </CharString>
        <CharString name="Hdotaccent">
          274 1341 hmoveto
          -94 callsubr
          94 1605 -102 callsubr
        </CharString>
        <CharString name="Hdotbelow">
          274 1341 hmoveto
          -94 callsubr
          -339 -470 -102 callsubr
        </CharString>
        <CharString name="I">
          -668 400 86 callgsubr
        </CharString>
        <CharString name="I.1">
          -224 1136 1161 rmoveto
          60 282 rlineto
          -268 hlineto
          -367 hlineto
          -268 hlineto
          -60 -282 rlineto
          268 hlineto
          -187 -879 rlineto
          -268 hlineto
          -60 -282 rlineto
          268 hlineto
          367 hlineto
          268 hlineto
          60 282 rlineto
          -268 hlineto
          187 879 rlineto
          endchar
        </CharString>
        <CharString name="IAcyrillic">
          -60 callgsubr
          endchar
        </CharString>
        <CharString name="IJ">
          537 400 hmoveto
          -92 callgsubr
          609 409 -62 callgsubr
          endchar
        </CharString>
        <CharString name="IJacute">
          537 400 hmoveto
          -92 callgsubr
          659 1556 111 callgsubr
          -326 hlineto
          -295 -314 rlineto
          1488 hmoveto
          337 314 rlineto
          -326 hlineto
          -295 -314 rlineto
          -970 -1147 -62 callgsubr
          endchar
        </CharString>
        <CharString name="IUcyrillic">
          891 1382 273 rmoveto
          -166 -107 134 207 307 177 249 222 167 108 -132 -209 -308 -177 -248 -224 hvcurveto
          -791 604 rmoveto
          121 566 rlineto
          -367 hlineto
          -307 -1443 rlineto
          366 hlineto
          124 582 rlineto
          217 hlineto
          -351 5 232 -256 391 hhcurveto
          436 346 358 517 356 -236 262 -403 -350 -286 -232 -359 -98 hvcurveto
          endchar
        </CharString>
        <CharString name="Iacute">
          -668 400 hmoveto
          -92 callgsubr
          659 1556 -84 callgsubr
        </CharString>
        <CharString name="Iacute.1">
          -224 1250 1870 rmoveto
          -326 hlineto
          -295 -314 rlineto
          284 hlineto
          -352 -113 rmoveto
          -268 hlineto
          -60 -282 rlineto
          268 hlineto
          -187 -879 rlineto
          -268 hlineto
          -60 -282 rlineto
          268 hlineto
          367 hlineto
          268 hlineto
          60 282 rlineto
          -268 hlineto
          187 879 rlineto
          268 hlineto
          60 282 rlineto
          -268 hlineto
          endchar
        </CharString>
        <CharString name="Ibreve">
          -668 400 hmoveto
          -92 callgsubr
          203 1865 -74 callgsubr
          endchar
        </CharString>
        <CharString name="Ibreve.1">
          -224 998 1865 rmoveto
          -96 -23 -75 -64 -103 hhcurveto
          -90 -48 48 76 12 1 12 3 12 hvcurveto
          -206 hlineto
          -4 -21 -3 -22 -22 vvcurveto
          -146 110 -117 207 240 160 143 185 45 vhcurveto
          -651 -422 rmoveto
          -268 hlineto
          -60 -282 rlineto
          268 hlineto
          -187 -879 rlineto
          -268 hlineto
          -60 -282 rlineto
          268 hlineto
          367 hlineto
          268 hlineto
          60 282 rlineto
          -268 hlineto
          187 879 rlineto
          268 hlineto
          60 282 rlineto
          -268 hlineto
          endchar
        </CharString>
        <CharString name="Icaron">
          -668 400 hmoveto
          -92 callgsubr
          377 1542 -86 callsubr
        </CharString>
        <CharString name="Icaron.1">
          -224 902 1542 rmoveto
          332 327 rlineto
          -253 hlineto
          -184 -192 rlineto
          -8 hlineto
          -103 192 rlineto
          -247 hlineto
          192 -327 rlineto
          -70 -99 rmoveto
          -268 hlineto
          -60 -282 rlineto
          268 hlineto
          -187 -879 rlineto
          -268 hlineto
          -60 -282 rlineto
          268 hlineto
          367 hlineto
          268 hlineto
          60 282 rlineto
          -268 hlineto
          187 879 rlineto
          268 hlineto
          60 282 rlineto
          -268 hlineto
          endchar
        </CharString>
        <CharString name="Icircumflex">
          -668 400 hmoveto
          -92 callgsubr
          714 1869 -67 callsubr
        </CharString>
        <CharString name="Icircumflex.1">
          -224 803 1734 rmoveto
          7 hlineto
          103 -192 rlineto
          247 hlineto
          -192 327 rlineto
          -271 hlineto
          -332 -327 rlineto
          253 hlineto
          518 -381 rmoveto
          60 282 rlineto
          -268 hlineto
          -367 hlineto
          -268 hlineto
          -60 -282 rlineto
          268 hlineto
          -187 -879 rlineto
          -268 hlineto
          -60 -282 rlineto
          268 hlineto
          367 hlineto
          268 hlineto
          60 282 rlineto
          -268 hlineto
          187 879 rlineto
          endchar
        </CharString>
        <CharString name="Icyrillic">
          74 callgsubr
        </CharString>
        <CharString name="Icyrillic.1">
          -204 1146 1161 rmoveto
          60 282 rlineto
          -268 hlineto
          -367 hlineto
          -268 hlineto
          -60 -282 rlineto
          268 hlineto
          -187 -879 rlineto
          -268 hlineto
          -60 -282 rlineto
          268 hlineto
          367 hlineto
          268 hlineto
          60 282 rlineto
          -268 hlineto
          187 879 rlineto
          endchar
        </CharString>
        <CharString name="Idblgrave">
          -668 400 hmoveto
          -92 callgsubr
          164 1556 rmoveto
          255 hlineto
          -163 314 rlineto
          -296 hlineto
          639 -314 -46 callsubr
        </CharString>
        <CharString name="Idblgrave.1">
          -224 1108 1556 rmoveto
          -163 314 rlineto
          -297 hlineto
          205 -314 rlineto
          -180 0 rmoveto
          -163 314 rlineto
          -296 hlineto
          204 -314 rlineto
          718 -395 rmoveto
          60 282 rlineto
          -268 hlineto
          -367 hlineto
          -268 hlineto
          -60 -282 rlineto
          268 hlineto
          -187 -879 rlineto
          -268 hlineto
          -60 -282 rlineto
          268 hlineto
          367 hlineto
          268 hlineto
          60 282 rlineto
          -268 hlineto
          187 879 rlineto
          endchar
        </CharString>
        <CharString name="Idieresis">
          18 callsubr
        </CharString>
        <CharString name="Idieresis.1">
          -224 1003 1573 rmoveto
          80 60 59 74 74 -60 60 -80 -80 -60 -60 -74 -74 60 -59 80 hvcurveto
          -407 0 rmoveto
          79 60 59 74 74 -60 60 -79 -80 -60 -60 -74 -74 60 -59 80 hvcurveto
          540 -412 rmoveto
          60 282 rlineto
          -268 hlineto
          -367 hlineto
          -268 hlineto
          -60 -282 rlineto
          268 hlineto
          -187 -879 rlineto
          -268 hlineto
          -60 -282 rlineto
          268 hlineto
          367 hlineto
          268 hlineto
          60 282 rlineto
          -268 hlineto
          187 879 rlineto
          endchar
        </CharString>
        <CharString name="Idieresisacute">
          -668 400 hmoveto
          -92 callgsubr
          441 1903 -3 callsubr
          -350 -610 -33 callgsubr
        </CharString>
        <CharString name="Idieresisacute.1">
          -224 1246 2168 rmoveto
          -300 hlineto
          -251 -265 rlineto
          267 hlineto
          -102 -212 rmoveto
          -74 60 -59 79 79 59 59 74 73 -59 59 -79 -79 -60 -59 -73 vhcurveto
          -264 -133 rmoveto
          79 59 59 74 73 -59 59 -79 -79 -60 -59 -73 -74 60 -59 79 hvcurveto
          -35 -115 rmoveto
          -268 hlineto
          -60 -282 rlineto
          268 hlineto
          -187 -879 rlineto
          -268 hlineto
          -60 -282 rlineto
          268 hlineto
          367 hlineto
          268 hlineto
          60 282 rlineto
          -268 hlineto
          187 879 rlineto
          268 hlineto
          60 282 rlineto
          -268 hlineto
          endchar
        </CharString>
        <CharString name="Idotaccent">
          -668 400 hmoveto
          -92 callgsubr
          558 1605 -102 callsubr
        </CharString>
        <CharString name="Idotaccent.1">
          -224 812 1605 rmoveto
          92 73 73 88 89 -73 73 -92 -92 -72 -73 -89 -88 72 -73 92 hvcurveto
          324 -444 rmoveto
          60 282 rlineto
          -268 hlineto
          -367 hlineto
          -268 hlineto
          -60 -282 rlineto
          268 hlineto
          -187 -879 rlineto
          -268 hlineto
          -60 -282 rlineto
          268 hlineto
          367 hlineto
          268 hlineto
          60 282 rlineto
          -268 hlineto
          187 879 rlineto
          endchar
        </CharString>
        <CharString name="Idotbelow">
          -668 400 hmoveto
          -92 callgsubr
          117 -470 -102 callsubr
        </CharString>
        <CharString name="Idotbelow.1">
          -224 372 -147 rmoveto
          -92 -72 -73 -89 -88 72 -73 92 92 73 73 88 89 -73 73 -92 hvcurveto
          764 1308 rmoveto
          60 282 rlineto
          -268 hlineto
          -367 hlineto
          -268 hlineto
          -60 -282 rlineto
          268 hlineto
          -187 -879 rlineto
          -268 hlineto
          -60 -282 rlineto
          268 hlineto
          367 hlineto
          268 hlineto
          60 282 rlineto
          -268 hlineto
          187 879 rlineto
          endchar
        </CharString>
        <CharString name="Iecyrillic">
          -65 1089 295 -101 callgsubr
          endchar
        </CharString>
        <CharString name="Igrave">
          -668 400 hmoveto
          -92 callgsubr
          386 1556 -46 callsubr
        </CharString>
        <CharString name="Igrave.1">
          -224 895 1556 rmoveto
          -163 314 rlineto
          -297 hlineto
          205 -314 rlineto
          496 -395 rmoveto
          60 282 rlineto
          -268 hlineto
          -367 hlineto
          -268 hlineto
          -60 -282 rlineto
          268 hlineto
          -187 -879 rlineto
          -268 hlineto
          -60 -282 rlineto
          268 hlineto
          367 hlineto
          268 hlineto
          60 282 rlineto
          -268 hlineto
          187 879 rlineto
          endchar
        </CharString>
        <CharString name="Ihookabove">
          -668 400 hmoveto
          -92 callgsubr
          360 1797 -69 callgsubr
        </CharString>
        <CharString name="Ihookabove.1">
          -224 763 1506 rmoveto
          156 59 106 120 116 vvcurveto
          103 -89 68 -137 -52 -61 -10 -15 -39 vhcurveto
          -33 -150 rlineto
          9 29 46 6 32 hhcurveto
          59 38 -24 -39 -48 -52 -45 -76 -26 hvcurveto
          446 -469 rmoveto
          60 282 rlineto
          -268 hlineto
          -367 hlineto
          -268 hlineto
          -60 -282 rlineto
          268 hlineto
          -187 -879 rlineto
          -268 hlineto
          -60 -282 rlineto
          268 hlineto
          367 hlineto
          268 hlineto
          60 282 rlineto
          -268 hlineto
          187 879 rlineto
          endchar
        </CharString>
        <CharString name="Iicyrillic">
          291 994 hmoveto
          -55 callsubr
          endchar
        </CharString>
        <CharString name="Iinvertedbreve">
          -668 400 hmoveto
          -92 callgsubr
          887 1537 -59 callgsubr
        </CharString>
        <CharString name="Iinvertedbreve.1">
          -224 1141 1537 rmoveto
          4 20 3 22 22 vvcurveto
          147 -110 117 -207 -240 -160 -144 -184 -46 vhcurveto
          215 hlineto
          95 23 75 65 103 hhcurveto
          90 48 -49 -76 -12 -1 -12 -3 -11 hvcurveto
          201 -376 rmoveto
          60 282 rlineto
          -268 hlineto
          -367 hlineto
          -268 hlineto
          -60 -282 rlineto
          268 hlineto
          -187 -879 rlineto
          -268 hlineto
          -60 -282 rlineto
          268 hlineto
          367 hlineto
          268 hlineto
          60 282 rlineto
          -268 hlineto
          187 879 rlineto
          endchar
        </CharString>
        <CharString name="Iishortcyrillic">
          291 994 hmoveto
          -55 callsubr
          -468 976 -75 callgsubr
        </CharString>
        <CharString name="Imacron">
          -668 400 hmoveto
          -92 callgsubr
          923 1778 -84 callsubr
          endchar
        </CharString>
        <CharString name="Imacron.1">
          -224 1177 1778 rmoveto
          -721 hlineto
          -35 -165 rlineto
          721 hlineto
          -6 -452 rmoveto
          60 282 rlineto
          -268 hlineto
          -367 hlineto
          -268 hlineto
          -60 -282 rlineto
          268 hlineto
          -187 -879 rlineto
          -268 hlineto
          -60 -282 rlineto
          268 hlineto
          367 hlineto
          268 hlineto
          60 282 rlineto
          -268 hlineto
          187 879 rlineto
          endchar
        </CharString>
        <CharString name="Iocyrillic">
          -65 1089 295 -101 callgsubr
          -357 1573 -105 callgsubr
        </CharString>
        <CharString name="Iogonek">
          -668 147 -478 rmoveto
          67 58 9 16 37 hvcurveto
          37 175 rlineto
          -6 -14 -32 -4 -28 hhcurveto
          -65 -39 28 48 71 80 83 117 49 hvcurveto
          36 13 306 1439 59 callsubr
          -308 -1447 49 -3 rlineto
          -113 -88 -64 -98 -90 vvcurveto
          -116 99 -79 144 vhcurveto
          endchar
        </CharString>
        <CharString name="Iogonek.1">
          -224 233 1161 rmoveto
          268 hlineto
          -188 -879 70 callgsubr
          -60 -282 rlineto
          589 hlineto
          -1 -4 rlineto
          -132 -60 -96 -114 -106 103 callgsubr
          37 175 rlineto
          -5 -13 -31 -5 -30 hhcurveto
          -68 -36 28 46 82 107 78 129 45 hvcurveto
          44 12 59 279 rlineto
          -269 hlineto
          188 879 rlineto
          268 -24 callgsubr
          endchar
        </CharString>
        <CharString name="Iotadieresisgreek">
          18 callsubr
        </CharString>
        <CharString name="Iotadieresisgreek.1">
          -224 1003 1573 rmoveto
          80 60 59 74 74 -60 60 -80 -80 -60 -60 -74 -74 60 -59 80 hvcurveto
          -407 0 rmoveto
          79 60 59 74 74 -60 60 -79 -80 -60 -60 -74 -74 60 -59 80 hvcurveto
          540 -412 rmoveto
          60 282 rlineto
          -268 hlineto
          -367 hlineto
          -268 hlineto
          -60 -282 rlineto
          268 hlineto
          -187 -879 rlineto
          -268 hlineto
          -60 -282 rlineto
          268 hlineto
          367 hlineto
          268 hlineto
          60 282 rlineto
          -268 hlineto
          187 879 rlineto
          endchar
        </CharString>
        <CharString name="Iotagreek">
          -668 400 86 callgsubr
        </CharString>
        <CharString name="Iotagreek.1">
          -224 1136 1161 rmoveto
          60 282 rlineto
          -268 hlineto
          -367 hlineto
          -268 hlineto
          -60 -282 rlineto
          268 hlineto
          -187 -879 rlineto
          -268 hlineto
          -60 -282 rlineto
          268 hlineto
          367 hlineto
          268 hlineto
          60 282 rlineto
          -268 hlineto
          187 879 rlineto
          endchar
        </CharString>
        <CharString name="Iotatonosgreek">
          -229 153 5 callgsubr
          533 -1443 -72 callsubr
          endchar
        </CharString>
        <CharString name="Iotatonosgreek.1">
          224 305 1443 rmoveto
          -152 -331 rlineto
          276 hlineto
          227 331 rlineto
          929 -282 rmoveto
          60 282 rlineto
          -268 hlineto
          -367 hlineto
          -268 hlineto
          -60 -282 rlineto
          268 hlineto
          -187 -879 rlineto
          -268 hlineto
          -60 -282 rlineto
          268 hlineto
          367 hlineto
          268 hlineto
          60 282 rlineto
          -268 hlineto
          187 879 rlineto
          endchar
        </CharString>
        <CharString name="Itilde">
          -668 400 hmoveto
          -92 callgsubr
          682 1546 -104 callgsubr
          endchar
        </CharString>
        <CharString name="Itilde.1">
          -224 1031 1834 rmoveto
          -75 -19 -31 -40 -42 hhcurveto
          -79 -32 127 -145 hhcurveto
          -134 -109 -110 -174 -35 hvcurveto
          184 hlineto
          70 17 34 41 41 hhcurveto
          79 34 -127 142 hhcurveto
          132 110 114 174 37 hvcurveto
          -654 -391 rmoveto
          -268 hlineto
          -60 -282 rlineto
          268 hlineto
          -187 -879 rlineto
          -268 hlineto
          -60 -282 rlineto
          268 hlineto
          367 hlineto
          268 hlineto
          60 282 rlineto
          -268 hlineto
          187 879 rlineto
          268 hlineto
          60 282 rlineto
          -268 hlineto
          endchar
        </CharString>
        <CharString name="Itildebelow">
          -668 400 hmoveto
          -92 callgsubr
          255 -460 -104 callgsubr
          endchar
        </CharString>
        <CharString name="Itildebelow.1">
          -224 163 -444 rmoveto
          70 17 34 41 41 hhcurveto
          79 34 -127 142 hhcurveto
          132 110 114 174 37 hvcurveto
          -184 hlineto
          -75 -19 -31 -40 -42 hhcurveto
          -79 -32 127 -145 hhcurveto
          -134 -109 -110 -174 -35 hvcurveto
          1157 1605 rmoveto
          60 282 rlineto
          -268 hlineto
          -367 hlineto
          -268 hlineto
          -60 -282 rlineto
          268 hlineto
          -187 -879 rlineto
          -268 hlineto
          -60 -282 rlineto
          268 hlineto
          367 hlineto
          268 hlineto
          60 282 rlineto
          -268 hlineto
          187 879 rlineto
          endchar
        </CharString>
        <CharString name="J">
          -61 44 409 -62 callgsubr
          endchar
        </CharString>
        <CharString name="Jcircumflex">
          -61 44 409 -62 callgsubr
          1309 1460 -67 callsubr
        </CharString>
        <CharString name="Jecyrillic">
          -51 49 409 -62 callgsubr
          endchar
        </CharString>
        <CharString name="K">
          -69 callsubr
          endchar
        </CharString>
        <CharString name="Kacute">
          -69 callsubr
          1061 1556 -84 callgsubr
        </CharString>
        <CharString name="Kacyrillic">
          163 1619 1443 rmoveto
          -425 hlineto
          -600 -601 rlineto
          -10 hlineto
          128 601 rlineto
          -367 hlineto
          -307 -1443 rlineto
          367 hlineto
          124 580 rlineto
          12 hlineto
          372 -580 rlineto
          411 hlineto
          -446 702 rlineto
          endchar
        </CharString>
        <CharString name="Kappagreek">
          -69 callsubr
          endchar
        </CharString>
        <CharString name="Kcaron">
          -69 callsubr
          779 1542 -86 callsubr
        </CharString>
        <CharString name="Kcommaaccent">
          -69 callsubr
          447 -475 -39 callsubr
        </CharString>
        <CharString name="Kdotbelow">
          -69 callsubr
          544 -470 -102 callsubr
        </CharString>
        <CharString name="Kjecyrillic">
          163 1410 1870 rmoveto
          -326 hlineto
          -295 -314 rlineto
          284 hlineto
          546 -113 rmoveto
          -425 hlineto
          -600 -601 rlineto
          -10 hlineto
          128 601 rlineto
          -367 hlineto
          -307 -1443 rlineto
          367 hlineto
          124 580 rlineto
          12 hlineto
          372 -580 rlineto
          411 hlineto
          -446 702 rlineto
          endchar
        </CharString>
        <CharString name="Klinebelow">
          -69 callsubr
          923 -226 -84 callsubr
          endchar
        </CharString>
        <CharString name="L">
          -130 1077 303 69 callgsubr
        </CharString>
        <CharString name="Lacute">
          -130 1077 303 -35 callgsubr
          -320 1556 -84 callgsubr
        </CharString>
        <CharString name="Lambdagreek">
          159 880 1121 rmoveto
          8 hlineto
          60 -1121 rlineto
          372 hlineto
          -146 -51 callgsubr
          -449 hlineto
          -784 -29 callsubr
          389 hlineto
          endchar
        </CharString>
        <CharString name="Lcaron">
          -130 953 58 callsubr
          -162 -1140 69 callgsubr
        </CharString>
        <CharString name="Lcircumflexbelow">
          -130 1077 303 -35 callgsubr
          -379 -165 -64 callsubr
        </CharString>
        <CharString name="Lcommaaccent">
          -130 1077 303 -35 callgsubr
          -640 -475 -39 callsubr
        </CharString>
        <CharString name="Ldotbelow">
          -130 1077 303 -35 callgsubr
          -543 -470 -102 callsubr
        </CharString>
        <CharString name="Ldotbelowmacron">
          -130 1077 303 -35 callgsubr
          -543 -470 -102 callgsubr
          487 2248 -84 callsubr
          endchar
        </CharString>
        <CharString name="Ljecyrillic">
          949 650 586 rmoveto
          148 562 rlineto
          364 115 callgsubr
          615 hlineto
          394 251 230 331 281 -190 163 -319 hvcurveto
          -170 hlineto
          94 438 rlineto
          -1057 hlineto
          -215 -830 rlineto
          -178 -46 -69 -128 -128 hhcurveto
          -32 -26 5 3 -14 hvcurveto
          -68 -315 rlineto
          -6 19 46 -8 61 hhcurveto
          347 139 213 387 101 hvcurveto
          942 137 rmoveto
          136 82 -67 -128 -146 -115 -104 -163 hvcurveto
          -188 hlineto
          95 445 rlineto
          endchar
        </CharString>
        <CharString name="Llinebelow">
          -130 1077 303 -35 callgsubr
          -164 -226 -84 callsubr
          endchar
        </CharString>
        <CharString name="Lslash">
          -130 465 303 rmoveto
          72 338 277 129 65 301 -278 -129 106 501 rlineto
          -367 hlineto
          -147 -691 -129 -60 -64 -302 129 60 -96 -450 rlineto
          979 hlineto
          65 303 rlineto
          endchar
        </CharString>
        <CharString name="M">
          550 359 20 callsubr
        </CharString>
        <CharString name="Macute">
          550 359 -67 callgsubr
          1229 1556 -84 callgsubr
        </CharString>
        <CharString name="Mdotaccent">
          550 359 -67 callgsubr
          1128 1605 -102 callsubr
        </CharString>
        <CharString name="Mdotbelow">
          550 359 -67 callgsubr
          730 -470 -102 callsubr
        </CharString>
        <CharString name="Mugreek">
          550 359 20 callsubr
        </CharString>
        <CharString name="N">
          225 -88 callsubr
          endchar
        </CharString>
        <CharString name="Nacute">
          225 -88 callsubr
          1073 1556 -84 callgsubr
        </CharString>
        <CharString name="Ncaron">
          225 -88 callsubr
          791 1542 -86 callsubr
        </CharString>
        <CharString name="Ncircumflexbelow">
          225 -88 callsubr
          755 -165 -64 callsubr
        </CharString>
        <CharString name="Ncommaaccent">
          225 -88 callsubr
          494 -475 -39 callsubr
        </CharString>
        <CharString name="Ndotaccent">
          225 -88 callsubr
          972 1605 -102 callsubr
        </CharString>
        <CharString name="Ndotbelow">
          225 -88 callsubr
          591 -470 -102 callsubr
        </CharString>
        <CharString name="Ngrave">
          225 -88 callsubr
          800 1556 -46 callsubr
        </CharString>
        <CharString name="Njecyrillic">
          943 922 hmoveto
          615 hlineto
          390 244 209 299 237 -186 148 -312 hvcurveto
          -193 hlineto
          117 550 106 callsubr
          -117 -551 rlineto
          -517 hlineto
          118 551 33 callsubr
          129 605 rlineto
          517 hlineto
          298 -327 rmoveto
          72 340 rlineto
          185 hlineto
          119 77 -46 -99 -116 -103 -79 -155 hvcurveto
          endchar
        </CharString>
        <CharString name="Nlinebelow">
          225 -88 callsubr
          970 -226 -84 callsubr
          endchar
        </CharString>
        <CharString name="Ntilde">
          225 -88 callsubr
          1096 1546 -104 callgsubr
          endchar
        </CharString>
        <CharString name="Nugreek">
          225 -88 callsubr
          endchar
        </CharString>
        <CharString name="NumberSignCyrillic">
          1098 400 hmoveto
          176 828 rlineto
          19 hlineto
          396 -828 rlineto
          292 -57 callgsubr
          -347 hlineto
          -174 -819 rlineto
          -19 hlineto
          -397 819 rlineto
          -294 -96 callsubr
          2223 371 rmoveto
          52 249 rlineto
          -702 hlineto
          -52 -249 rlineto
          616 737 rmoveto
          -103 -64 -72 -91 -76 -48 54 84 102 64 72 92 73 50 -56 -81 vhcurveto
          257 10 rmoveto
          210 -144 137 -222 -249 -179 -170 -236 -209 145 -137 220 250 179 170 235 vhcurveto
          endchar
        </CharString>
        <CharString name="O">
          304 918 1170 -106 callsubr
          endchar
        </CharString>
        <CharString name="OE">
          970 1142 hmoveto
          904 hlineto
          62 295 rlineto
          -622 hlineto
          63 295 rlineto
          584 hlineto
          58 270 rlineto
          -584 hlineto
          61 288 rlineto
          621 hlineto
          63 295 rlineto
          -903 hlineto
          -53 -241 rlineto
          -6 hlineto
          172 -89 -158 94 -207 hhcurveto
          -457 -333 -375 -498 -369 232 -251 343 184 169 75 124 96 hvcurveto
          7 hlineto
          32 655 rmoveto
          -305 -179 -251 -230 -50 callsubr
          305 179 251 229 172 111 -133 -208 vhcurveto
          endchar
        </CharString>
        <CharString name="Oacute">
          304 918 1170 -106 callsubr
          326 1581 -84 callgsubr
        </CharString>
        <CharString name="Obreve">
          304 918 1170 -106 callsubr
          -130 1890 -74 callgsubr
          endchar
        </CharString>
        <CharString name="Ocaron">
          304 918 1170 -106 callsubr
          44 1567 -86 callsubr
        </CharString>
        <CharString name="Ocircumflex">
          304 918 1170 -106 callsubr
          381 1894 -67 callsubr
        </CharString>
        <CharString name="Ocircumflexacute">
          304 918 1170 -106 callsubr
          94 1857 -54 callsubr
          -37 71 -3 callsubr
          endchar
        </CharString>
        <CharString name="Ocircumflexdotbelow">
          304 918 1170 -106 callsubr
          381 1894 -78 callsubr
          -646 -2012 -102 callsubr
        </CharString>
        <CharString name="Ocircumflexgrave">
          304 918 1170 -106 callsubr
          94 1857 -54 callsubr
          237 71 4 callsubr
          endchar
        </CharString>
        <CharString name="Ocircumflexhookabove">
          304 918 1170 -106 callsubr
          94 1857 -54 callsubr
          7 169 rmoveto
          11 32 37 7 35 hhcurveto
          56 37 -25 -39 -47 -38 -41 -58 -20 hvcurveto
          75 -120 rlineto
          132 51 96 103 125 vvcurveto
          104 -86 64 -135 -52 -60 -9 -16 -38 vhcurveto
          endchar
        </CharString>
        <CharString name="Ocircumflextilde">
          304 918 1170 -106 callsubr
          406 1919 -45 callgsubr
        </CharString>
        <CharString name="Ocyrillic">
          314 923 1170 -106 callsubr
          endchar
        </CharString>
        <CharString name="Odblgrave">
          304 918 1170 -106 callsubr
          -169 1581 rmoveto
          255 hlineto
          -163 314 rlineto
          -296 hlineto
          639 -314 -46 callsubr
        </CharString>
        <CharString name="Odieresis">
          304 918 1170 -106 callsubr
          9 1598 -105 callgsubr
        </CharString>
        <CharString name="Odieresismacron">
          304 918 1170 -106 callsubr
          -3 1844 rmoveto
          -39 callgsubr
          661 279 -84 callsubr
          -203 -114 rmoveto
          81 callsubr
        </CharString>
        <CharString name="Odotaccent">
          304 918 1170 -106 callsubr
          225 1630 -102 callsubr
        </CharString>
        <CharString name="Odotaccentmacron">
          304 918 1170 -106 callsubr
          210 1571 16 callsubr
        </CharString>
        <CharString name="Odotbelow">
          304 918 1170 -106 callsubr
          -73 -445 -102 callsubr
        </CharString>
        <CharString name="Ograve">
          304 918 1170 -106 callsubr
          53 1581 -46 callsubr
        </CharString>
        <CharString name="Ohookabove">
          304 918 1170 -106 callsubr
          27 1822 -69 callgsubr
        </CharString>
        <CharString name="Ohorn">
          -88 callgsubr
          endchar
        </CharString>
        <CharString name="Ohornacute">
          -88 callgsubr
          -465 706 -84 callgsubr
        </CharString>
        <CharString name="Ohorndotbelow">
          -88 callgsubr
          -864 -1320 -102 callsubr
        </CharString>
        <CharString name="Ohorngrave">
          -88 callgsubr
          -738 706 -46 callsubr
        </CharString>
        <CharString name="Ohornhookabove">
          -88 callgsubr
          -764 947 -69 callgsubr
        </CharString>
        <CharString name="Ohorntilde">
          -88 callgsubr
          -442 696 -104 callgsubr
          endchar
        </CharString>
        <CharString name="Ohungarumlaut">
          304 918 1170 -106 callsubr
          563 1581 0 callsubr
        </CharString>
        <CharString name="Oinvertedbreve">
          304 918 1170 -106 callsubr
          554 1562 -59 callgsubr
        </CharString>
        <CharString name="Omacron">
          304 918 1170 -106 callsubr
          590 1803 -84 callsubr
          endchar
        </CharString>
        <CharString name="Omacronacute">
          304 918 1170 -106 callsubr
          552 93 callgsubr
          284 300 rmoveto
          267 hlineto
          283 110 callgsubr
        </CharString>
        <CharString name="Omacrongrave">
          304 918 1170 -106 callsubr
          552 93 callgsubr
          553 300 rmoveto
          -138 265 rlineto
          -271 hlineto
          171 -265 rlineto
          endchar
        </CharString>
        <CharString name="Omegagreek">
          342 836 hmoveto
          -7 callsubr
        </CharString>
        <CharString name="Omegatonosgreek">
          662 153 5 callgsubr
          851 -1443 rmoveto
          -7 callsubr
        </CharString>
        <CharString name="Omicrongreek">
          304 918 1170 -106 callsubr
          endchar
        </CharString>
        <CharString name="Omicrontonosgreek">
          587 153 5 callgsubr
          896 -273 -106 callsubr
          endchar
        </CharString>
        <CharString name="Oogonek">
          -22 callgsubr
          endchar
        </CharString>
        <CharString name="Oogonekmacron">
          -22 callgsubr
          171 949 -84 callsubr
          endchar
        </CharString>
        <CharString name="Oslash">
          304 1195 911 rmoveto
          4 -26 2 -27 -29 vvcurveto
          -308 -181 -248 -228 -69 -59 22 39 -46 vhcurveto
          -102 198 rmoveto
          -4 26 -2 27 29 vvcurveto
          307 181 249 227 69 60 -22 -39 46 vhcurveto
          534 234 rmoveto
          -150 150 -143 -143 rlineto
          75 -105 -138 43 -165 hhcurveto
          -442 -346 -359 -516 -131 33 -117 61 -97 hvcurveto
          -148 -148 150 -150 143 143 rlineto
          -75 106 136 -43 163 hhcurveto
          441 350 358 517 131 -32 118 -61 97 hvcurveto
          endchar
        </CharString>
        <CharString name="Oslashacute">
          304 1445 1870 rmoveto
          -326 hlineto
          -295 -314 rlineto
          284 hlineto
          87 -645 rmoveto
          4 -26 2 -27 -29 vvcurveto
          -308 -181 -248 -228 -69 -59 22 39 -46 vhcurveto
          -102 198 rmoveto
          -4 26 -2 27 29 vvcurveto
          307 181 249 227 69 60 -22 -39 46 vhcurveto
          534 234 rmoveto
          -150 150 -143 -143 rlineto
          75 -105 -138 43 -165 hhcurveto
          -442 -346 -359 -516 -131 33 -117 61 -97 hvcurveto
          -148 -148 150 -150 143 143 rlineto
          -75 106 136 -43 163 hhcurveto
          441 350 358 517 131 -32 118 -61 97 hvcurveto
          endchar
        </CharString>
        <CharString name="Otilde">
          304 918 1170 -106 callsubr
          349 1571 -104 callgsubr
          endchar
        </CharString>
        <CharString name="Otildeacute">
          304 918 1170 -106 callsubr
          115 1932 rmoveto
          267 hlineto
          283 261 rlineto
          -300 hlineto
          -32 -631 -58 callgsubr
          endchar
        </CharString>
        <CharString name="Otildedieresis">
          304 918 1170 -106 callsubr
          333 1562 -58 callgsubr
          -257 654 rmoveto
          -39 callgsubr
          422 hmoveto
          -83 -62 -62 -77 -77 62 -63 83 84 62 63 77 77 -62 62 -84 hvcurveto
          endchar
        </CharString>
        <CharString name="Otildemacron">
          304 918 1170 -106 callsubr
          658 2123 -84 callsubr
          -290 -396 -58 callgsubr
          endchar
        </CharString>
        <CharString name="P">
          60 340 -61 callsubr
          endchar
        </CharString>
        <CharString name="Pacute">
          60 340 -61 callsubr
          359 856 -84 callgsubr
        </CharString>
        <CharString name="Pdotaccent">
          60 340 -61 callsubr
          259 905 -102 callsubr
        </CharString>
        <CharString name="Pecyrillic">
          270 1333 48 callsubr
        </CharString>
        <CharString name="Phigreek">
          646 679 -131 rmoveto
          331 hlineto
          32 146 rlineto
          548 30 323 330 418 vvcurveto
          332 -215 227 -363 44 vhcurveto
          34 159 rlineto
          -332 hlineto
          -31 -151 rlineto
          -553 -31 -318 -331 -420 vvcurveto
          -317 203 -236 374 -47 vhcurveto
          60 281 rmoveto
          -176 26 -105 115 181 vvcurveto
          292 186 173 269 34 vhcurveto
          155 -830 rmoveto
          174 821 rlineto
          173 -25 108 -113 -184 vvcurveto
          -281 -173 -182 -282 -36 vhcurveto
          endchar
        </CharString>
        <CharString name="Pigreek">
          254 1321 hmoveto
          -68 callgsubr
          -1288 -96 callsubr
          374 82 callsubr
          539 hlineto
          -244 -1148 rlineto
          endchar
        </CharString>
        <CharString name="Psigreek">
          519 981 hmoveto
          60 282 438 21 211 163 73 341 rlinecurve
          135 636 79 callsubr
          -128 -598 -38 -180 -82 -79 -203 -17 rlinecurve
          186 874 rlineto
          -343 hlineto
          -184 -863 rlineto
          -148 6 -68 57 126 vvcurveto
          29 5 34 13 59 vhcurveto
          116 552 -31 callgsubr
          -125 -589 rlineto
          -9 -43 -4 -41 -41 vvcurveto
          -260 176 -152 327 -25 vhcurveto
          -62 -292 rlineto
          endchar
        </CharString>
        <CharString name="Q">
          304 1359 -132 rmoveto
          -115 262 rlineto
          207 165 122 251 304 vvcurveto
          356 -239 262 -408 -442 -346 -359 -516 -357 244 -261 400 65 64 9 15 60 vhcurveto
          57 -131 rlineto
          -236 405 rmoveto
          -90 callsubr
          171 112 -132 -209 -144 -43 -133 -72 -91 hvcurveto
          -23 43 rlineto
          -302 hlineto
          96 -224 rlineto
          -5 -27 -19 -2 -19 hhcurveto
          endchar
        </CharString>
        <CharString name="R">
          99 562 764 rmoveto
          87 402 rlineto
          205 hlineto
          125 71 -61 -112 -134 -103 -95 -159 hvcurveto
          -448 679 rmoveto
          -307 -1443 rlineto
          367 hlineto
          107 505 rlineto
          200 hlineto
          149 -505 rlineto
          382 hlineto
          -169 541 rlineto
          225 77 125 197 209 vvcurveto
          243 -168 176 -296 vhcurveto
          endchar
        </CharString>
        <CharString name="Racute">
          99 1317 1870 rmoveto
          -326 hlineto
          -295 -314 rlineto
          284 hlineto
          -418 -792 rmoveto
          87 402 rlineto
          205 hlineto
          125 71 -61 -112 -134 -103 -95 -159 hvcurveto
          -448 679 rmoveto
          -307 -1443 rlineto
          367 hlineto
          107 505 rlineto
          200 hlineto
          149 -505 rlineto
          382 hlineto
          -169 541 rlineto
          225 77 125 197 209 vvcurveto
          243 -168 176 -296 vhcurveto
          endchar
        </CharString>
        <CharString name="Rcaron">
          99 969 1542 rmoveto
          332 327 rlineto
          -253 hlineto
          -184 -192 rlineto
          -8 hlineto
          -103 192 rlineto
          -247 hlineto
          192 -327 rlineto
          -136 -778 rmoveto
          87 402 rlineto
          205 hlineto
          125 71 -61 -112 -134 -103 -95 -159 hvcurveto
          -448 679 rmoveto
          -307 -1443 rlineto
          367 hlineto
          107 505 rlineto
          200 hlineto
          149 -505 rlineto
          382 hlineto
          -169 541 rlineto
          225 77 125 197 209 vvcurveto
          243 -168 176 -296 vhcurveto
          endchar
        </CharString>
        <CharString name="Rcommaaccent">
          99 194 -475 rmoveto
          267 hlineto
          257 330 rlineto
          -313 hlineto
          157 909 rmoveto
          87 402 rlineto
          205 hlineto
          125 71 -61 -112 -134 -103 -95 -159 hvcurveto
          -448 679 rmoveto
          -307 -1443 rlineto
          367 hlineto
          107 505 rlineto
          200 hlineto
          149 -505 rlineto
          382 hlineto
          -169 541 rlineto
          225 77 125 197 209 vvcurveto
          243 -168 176 -296 vhcurveto
          endchar
        </CharString>
        <CharString name="Rdblgrave">
          99 1175 1556 rmoveto
          -163 314 rlineto
          -297 hlineto
          205 -314 rlineto
          -180 0 rmoveto
          -163 314 rlineto
          -296 hlineto
          204 -314 rlineto
          77 -792 rmoveto
          87 402 rlineto
          205 hlineto
          125 71 -61 -112 -134 -103 -95 -159 hvcurveto
          -448 679 rmoveto
          -307 -1443 rlineto
          367 hlineto
          107 505 rlineto
          200 hlineto
          149 -505 rlineto
          382 hlineto
          -169 541 rlineto
          225 77 125 197 209 vvcurveto
          243 -168 176 -296 vhcurveto
          endchar
        </CharString>
        <CharString name="Rdotaccent">
          99 879 1605 rmoveto
          92 73 73 88 89 -73 73 -92 -92 -72 -73 -89 -88 72 -73 92 hvcurveto
          -317 -841 rmoveto
          87 402 rlineto
          205 hlineto
          125 71 -61 -112 -134 -103 -95 -159 hvcurveto
          -448 679 rmoveto
          -307 -1443 rlineto
          367 hlineto
          107 505 rlineto
          200 hlineto
          149 -505 rlineto
          382 hlineto
          -169 541 rlineto
          225 77 125 197 209 vvcurveto
          243 -168 176 -296 vhcurveto
          endchar
        </CharString>
        <CharString name="Rdotbelow">
          99 558 -147 rmoveto
          -92 -72 -73 -89 -88 72 -73 92 92 73 73 88 89 -73 73 -92 hvcurveto
          4 911 rmoveto
          87 402 rlineto
          205 hlineto
          125 71 -61 -112 -134 -103 -95 -159 hvcurveto
          -448 679 rmoveto
          -307 -1443 rlineto
          367 hlineto
          107 505 rlineto
          200 hlineto
          149 -505 rlineto
          382 hlineto
          -169 541 rlineto
          225 77 125 197 209 vvcurveto
          243 -168 176 -296 vhcurveto
          endchar
        </CharString>
        <CharString name="Rdotbelowmacron">
          99 1244 1778 rmoveto
          -721 hlineto
          -35 -165 rlineto
          721 hlineto
          -651 -1760 rmoveto
          -92 -72 -73 -89 -88 72 -73 92 92 73 73 88 89 -73 73 -92 hvcurveto
          4 911 rmoveto
          87 402 rlineto
          205 hlineto
          125 71 -61 -112 -134 -103 -95 -159 hvcurveto
          -448 679 rmoveto
          -307 -1443 rlineto
          367 hlineto
          107 505 rlineto
          200 hlineto
          149 -505 rlineto
          382 hlineto
          -169 541 rlineto
          225 77 125 197 209 vvcurveto
          243 -168 176 -296 vhcurveto
          endchar
        </CharString>
        <CharString name="Rhogreek">
          60 340 -61 callsubr
          endchar
        </CharString>
        <CharString name="Rinvertedbreve">
          99 1208 1537 rmoveto
          4 20 3 22 22 vvcurveto
          147 -110 117 -207 -240 -160 -144 -184 -46 vhcurveto
          215 hlineto
          95 23 75 65 103 hhcurveto
          90 48 -49 -76 -12 -1 -12 -3 -11 hvcurveto
          -440 -773 rmoveto
          87 402 rlineto
          205 hlineto
          125 71 -61 -112 -134 -103 -95 -159 hvcurveto
          -448 679 rmoveto
          -307 -1443 rlineto
          367 hlineto
          107 505 rlineto
          200 hlineto
          149 -505 rlineto
          382 hlineto
          -169 541 rlineto
          225 77 125 197 209 vvcurveto
          243 -168 176 -296 vhcurveto
          endchar
        </CharString>
        <CharString name="Rlinebelow">
          99 181 -391 rmoveto
          721 hlineto
          35 165 rlineto
          -721 hlineto
          346 990 rmoveto
          87 402 rlineto
          205 hlineto
          125 71 -61 -112 -134 -103 -95 -159 hvcurveto
          -448 679 rmoveto
          -307 -1443 rlineto
          367 hlineto
          107 505 rlineto
          200 hlineto
          149 -505 rlineto
          382 hlineto
          -169 541 rlineto
          225 77 125 197 209 vvcurveto
          243 -168 176 -296 vhcurveto
          endchar
        </CharString>
        <CharString name="S">
          81 71 425 rmoveto
          -101 callsubr
          endchar
        </CharString>
        <CharString name="Sacute">
          81 71 425 rmoveto
          -101 callsubr
          570 1131 -84 callgsubr
        </CharString>
        <CharString name="Sacutedotaccent">
          81 71 425 rmoveto
          -101 callsubr
          762 1135 49 callsubr
        </CharString>
        <CharString name="Scaron">
          81 71 425 rmoveto
          -101 callsubr
          288 1117 -86 callsubr
        </CharString>
        <CharString name="Scarondotaccent">
          81 71 425 rmoveto
          -101 callsubr
          291 1112 36 callgsubr
        </CharString>
        <CharString name="Scedilla">
          81 776 888 rmoveto
          -130 38 -49 47 71 vvcurveto
          80 80 66 134 139 90 -68 -102 4 vhcurveto
          338 hlineto
          280 -1 -224 168 -354 hhcurveto
          -336 -243 -187 -282 -197 126 -126 240 -74 hvcurveto
          138 -42 rlineto
          146 -45 39 -40 -71 vvcurveto
          -92 -93 -58 -137 -143 -106 71 100 -14 vhcurveto
          -349 hlineto
          3 -252 183 -158 298 -34 -62 -84 rcurveline
          -26 -113 rlineto
          58 hlineto
          89 32 -12 -33 -34 -40 -18 -75 -42 -45 6 9 -30 hvcurveto
          -32 -150 rlineto
          -11 29 59 -7 59 hhcurveto
          180 129 95 132 86 -53 53 -97 9 hvcurveto
          49 68 rlineto
          337 20 214 191 269 vvcurveto
          202 -114 111 -255 75 vhcurveto
          endchar
        </CharString>
        <CharString name="Scircumflex">
          81 71 425 rmoveto
          -101 callsubr
          625 1444 -67 callsubr
        </CharString>
        <CharString name="Scommaaccent">
          81 71 425 rmoveto
          -101 callsubr
          86 -900 -39 callsubr
        </CharString>
        <CharString name="Sdotaccent">
          81 71 425 rmoveto
          -101 callsubr
          470 1180 -102 callsubr
        </CharString>
        <CharString name="Sdotbelow">
          81 71 425 rmoveto
          -101 callsubr
          183 -895 -102 callsubr
        </CharString>
        <CharString name="Sdotbelowdotaccent">
          81 71 425 rmoveto
          -101 callsubr
          183 -895 -102 callgsubr
          287 2075 -102 callsubr
        </CharString>
        <CharString name="Shacyrillic">
          777 38 hmoveto
          1802 -57 callgsubr
          -368 115 callgsubr
          -349 hlineto
          244 1148 rlineto
          -367 115 callgsubr
          -350 82 callsubr
          -367 hlineto
          endchar
        </CharString>
        <CharString name="Shchacyrillic">
          859 1959 -285 rmoveto
          123 580 rlineto
          -180 82 callsubr
          -368 115 callgsubr
          -349 hlineto
          244 1148 rlineto
          -367 115 callgsubr
          -350 hlineto
          245 1148 -91 callgsubr
          1652 hlineto
          -61 -285 rlineto
          endchar
        </CharString>
        <CharString name="Sigmagreek">
          27 514 301 rmoveto
          369 428 5 18 -165 394 1 7 rlineto
          629 hlineto
          63 295 rlineto
          -1090 hlineto
          -54 -249 216 -464 -448 -517 -45 -213 rlineto
          1137 hlineto
          63 294 rlineto
          -682 hlineto
          endchar
        </CharString>
        <CharString name="Softsigncyrillic">
          68 711 718 rmoveto
          136 83 -66 -124 -148 -115 -102 -163 hvcurveto
          -188 hlineto
          94 440 rlineto
          -520 -718 rmoveto
          615 hlineto
          388 256 218 339 282 -191 161 -319 hvcurveto
          -169 hlineto
          94 443 59 callsubr
          endchar
        </CharString>
        <CharString name="T">
          18 743 53 callgsubr
        </CharString>
        <CharString name="Taugreek">
          18 743 53 callgsubr
        </CharString>
        <CharString name="Tbar">
          18 1402 1148 rmoveto
          63 295 rlineto
          -1199 hlineto
          -63 -295 rlineto
          416 hlineto
          -59 -278 rlineto
          -273 hlineto
          -63 -294 rlineto
          273 hlineto
          -122 -576 rlineto
          368 hlineto
          122 576 rlineto
          319 hlineto
          62 294 rlineto
          -319 hlineto
          59 278 rlineto
          endchar
        </CharString>
        <CharString name="Tcaron">
          18 743 hmoveto
          -61 callgsubr
          378 1542 -86 callsubr
        </CharString>
        <CharString name="Tcedilla">
          18 266 1443 rmoveto
          -63 -295 rlineto
          416 hlineto
          -244 -1148 rlineto
          183 hlineto
          -76 -103 -26 -113 rlineto
          58 hlineto
          89 32 -12 -33 -34 -40 -18 -75 -42 -45 6 9 -30 hvcurveto
          -32 -150 rlineto
          -11 29 59 -7 59 hhcurveto
          180 129 95 132 86 -53 53 -97 9 hvcurveto
          66 91 243 1148 rlineto
          416 hlineto
          63 295 rlineto
          endchar
        </CharString>
        <CharString name="Tcircumflexbelow">
          18 743 hmoveto
          -61 callgsubr
          283 -165 -64 callsubr
        </CharString>
        <CharString name="Tcommaaccent">
          18 743 hmoveto
          -61 callgsubr
          22 -475 -39 callsubr
        </CharString>
        <CharString name="Tdotaccent">
          18 743 hmoveto
          -61 callgsubr
          559 1605 -102 callsubr
        </CharString>
        <CharString name="Tdotbelow">
          18 743 hmoveto
          -61 callgsubr
          119 -470 -102 callsubr
        </CharString>
        <CharString name="Tecyrillic">
          28 748 53 callgsubr
        </CharString>
        <CharString name="Thetagreek">
          370 1085 575 rmoveto
          59 281 rlineto
          -457 hlineto
          -58 -281 rlineto
          171 -600 rmoveto
          496 342 359 504 385 -256 244 -405 -496 -342 -358 -504 -385 257 -245 404 hvcurveto
          474 853 rmoveto
          -314 -191 -248 -260 -202 -118 132 215 315 191 250 259 202 119 -134 -216 vhcurveto
          endchar
        </CharString>
        <CharString name="Thorn">
          99 52 hmoveto
          366 hlineto
          101 callgsubr
          301 hlineto
          350 245 242 303 239 -191 174 -262 hvcurveto
          -238 hlineto
          47 219 106 callsubr
          258 -502 rmoveto
          188 hlineto
          132 69 -60 -108 -137 -104 -90 -163 hvcurveto
          -206 hlineto
          endchar
        </CharString>
        <CharString name="Tlinebelow">
          18 743 hmoveto
          -61 callgsubr
          498 -226 -84 callsubr
          endchar
        </CharString>
        <CharString name="Tsecyrillic">
          362 1454 -285 rmoveto
          123 580 rlineto
          -180 82 callsubr
          -369 hlineto
          -244 -1148 rlineto
          -560 82 callsubr
          -368 -96 callsubr
          1146 hlineto
          -61 -285 rlineto
          endchar
        </CharString>
        <CharString name="Tshecyrillic">
          498 1114 599 rmoveto
          149 59 -93 -142 -30 hvcurveto
          -78 -364 rlineto
          368 hlineto
          77 364 rlineto
          333 71 -151 209 -327 hhcurveto
          -132 -118 -48 -60 -75 hvcurveto
          -10 hlineto
          74 350 rlineto
          401 hlineto
          63 295 rlineto
          -1168 34 callgsubr
          400 hlineto
          -244 -1148 rlineto
          368 hlineto
          98 462 rlineto
          73 57 96 64 115 hhcurveto
          endchar
        </CharString>
        <CharString name="U">
          -103 callgsubr
          endchar
        </CharString>
        <CharString name="Uacute">
          -103 callgsubr
          391 1581 -84 callgsubr
        </CharString>
        <CharString name="Ubreve">
          -103 callgsubr
          -65 1890 -74 callgsubr
          endchar
        </CharString>
        <CharString name="Ucaron">
          -103 callgsubr
          109 1567 -86 callsubr
        </CharString>
        <CharString name="Ucircumflex">
          -103 callgsubr
          446 1894 -67 callsubr
        </CharString>
        <CharString name="Ucircumflexbelow">
          -103 callgsubr
          78 -140 -64 callsubr
        </CharString>
        <CharString name="Ucyrillic">
          -73 callgsubr
          endchar
        </CharString>
        <CharString name="Udblgrave">
          -103 callgsubr
          -104 1581 rmoveto
          255 hlineto
          -163 314 rlineto
          -296 hlineto
          639 -314 -46 callsubr
        </CharString>
        <CharString name="Udieresis">
          -103 callgsubr
          74 1598 -105 callgsubr
        </CharString>
        <CharString name="Udieresisacute">
          -103 callgsubr
          173 1928 -3 callsubr
          -350 -610 -33 callgsubr
        </CharString>
        <CharString name="Udieresisbelow">
          -103 callgsubr
          -289 -418 7 callsubr
        </CharString>
        <CharString name="Udieresiscaron">
          -103 callgsubr
          200 1925 13 callgsubr
        </CharString>
        <CharString name="Udieresisgrave">
          -103 callgsubr
          454 1928 4 callsubr
          -142 -345 -33 callgsubr
        </CharString>
        <CharString name="Udieresismacron">
          -103 callgsubr
          62 1844 rmoveto
          -39 callgsubr
          661 279 -84 callsubr
          -203 -114 rmoveto
          81 callsubr
        </CharString>
        <CharString name="Udotbelow">
          -103 callgsubr
          -86 -445 -102 callsubr
        </CharString>
        <CharString name="Ugrave">
          -103 callgsubr
          118 1581 -46 callsubr
        </CharString>
        <CharString name="Uhookabove">
          -103 callgsubr
          92 1822 -69 callgsubr
        </CharString>
        <CharString name="Uhorn">
          -86 callgsubr
          endchar
        </CharString>
        <CharString name="Uhornacute">
          -86 callgsubr
          388 1581 -84 callgsubr
        </CharString>
        <CharString name="Uhorndotbelow">
          -86 callgsubr
          -118 -445 -102 callsubr
        </CharString>
        <CharString name="Uhorngrave">
          -86 callgsubr
          115 1581 -46 callsubr
        </CharString>
        <CharString name="Uhornhookabove">
          -86 callgsubr
          89 1822 -69 callgsubr
        </CharString>
        <CharString name="Uhorntilde">
          -86 callgsubr
          411 1571 -104 callgsubr
          endchar
        </CharString>
        <CharString name="Uhungarumlaut">
          -103 callgsubr
          628 1581 0 callsubr
        </CharString>
        <CharString name="Uinvertedbreve">
          -103 callgsubr
          619 1562 -59 callgsubr
        </CharString>
        <CharString name="Umacron">
          -103 callgsubr
          655 1803 -84 callsubr
          endchar
        </CharString>
        <CharString name="Umacrondieresis">
          -103 callgsubr
          617 1628 29 callsubr
        </CharString>
        <CharString name="Uogonek">
          218 990 -453 rmoveto
          37 175 rlineto
          -5 -13 -30 -5 -31 hhcurveto
          -67 -37 28 46 96 100 85 149 91 hvcurveto
          142 86 105 132 37 179 209 988 rcurveline
          -368 26 callsubr
          -140 -96 77 130 -2 hvcurveto
          27 3 31 7 32 vhcurveto
          183 859 rlineto
          -369 hlineto
          -183 -865 -9 -42 -5 -43 1 -39 rlinecurve
          -280 230 -199 368 11 13 1 2 7 vhcurveto
          -7 vlineto
          -115 -66 -73 -94 -95 103 callgsubr
          endchar
        </CharString>
        <CharString name="Upsilondieresisgreek">
          123 796 hmoveto
          -82 callgsubr
          337 1573 -105 callgsubr
        </CharString>
        <CharString name="Upsilongreek">
          123 796 hmoveto
          -82 callgsubr
          endchar
        </CharString>
        <CharString name="Upsilontonosgreek">
          707 254 5 callgsubr
          974 -1443 49 callgsubr
        </CharString>
        <CharString name="Uring">
          -103 callgsubr
          308 1594 -89 callgsubr
        </CharString>
        <CharString name="Ushortcyrillic">
          -73 callgsubr
          333 1883 -75 callgsubr
        </CharString>
        <CharString name="Utilde">
          -103 callgsubr
          414 1571 -104 callgsubr
          endchar
        </CharString>
        <CharString name="Utildeacute">
          -103 callgsubr
          180 1932 rmoveto
          267 hlineto
          283 261 rlineto
          -300 hlineto
          -32 -631 -58 callgsubr
          endchar
        </CharString>
        <CharString name="Utildebelow">
          -103 callgsubr
          52 -435 -104 callgsubr
          endchar
        </CharString>
        <CharString name="V">
          19 callgsubr
          endchar
        </CharString>
        <CharString name="Vdotbelow">
          19 callgsubr
          159 -470 -102 callsubr
        </CharString>
        <CharString name="Vecyrillic">
          110 783 -83 callsubr
          endchar
        </CharString>
        <CharString name="Vtilde">
          19 callgsubr
          713 1546 -104 callgsubr
          endchar
        </CharString>
        <CharString name="W">
          720 1096 -72 callgsubr
          endchar
        </CharString>
        <CharString name="Wacute">
          720 1096 -72 callgsubr
          716 1556 -84 callgsubr
        </CharString>
        <CharString name="Wcircumflex">
          720 1096 -72 callgsubr
          771 1869 -67 callsubr
        </CharString>
        <CharString name="Wdieresis">
          720 1096 -72 callgsubr
          399 1573 -105 callgsubr
        </CharString>
        <CharString name="Wdotaccent">
          720 1096 -72 callgsubr
          615 1605 -102 callsubr
        </CharString>
        <CharString name="Wdotbelow">
          720 1096 -72 callgsubr
          181 -470 -102 callsubr
        </CharString>
        <CharString name="Wgrave">
          720 1096 -72 callgsubr
          443 1556 -46 callsubr
        </CharString>
        <CharString name="X">
          169 -54 33 callgsubr
        </CharString>
        <CharString name="Xacyrillic">
          179 -49 33 callgsubr
        </CharString>
        <CharString name="Xdieresis">
          169 -54 hmoveto
          -56 callgsubr
          216 844 -105 callgsubr
        </CharString>
        <CharString name="Xdotaccent">
          169 -54 hmoveto
          -56 callgsubr
          433 876 -102 callsubr
        </CharString>
        <CharString name="Xigreek">
          9 310 69 callsubr
          -65 -304 rlineto
          1103 hlineto
          65 304 rlineto
          -269 -859 rmoveto
          59 279 rlineto
          -929 hlineto
          -59 -279 rlineto
          -147 -280 rmoveto
          -65 -304 rlineto
          1103 hlineto
          65 304 rlineto
          endchar
        </CharString>
        <CharString name="Y">
          123 796 hmoveto
          -82 callgsubr
          endchar
        </CharString>
        <CharString name="Yacute">
          123 796 hmoveto
          -82 callgsubr
          654 1556 -84 callgsubr
        </CharString>
        <CharString name="Ycircumflex">
          123 796 hmoveto
          -82 callgsubr
          709 1869 -67 callsubr
        </CharString>
        <CharString name="Ydieresis">
          123 796 hmoveto
          -82 callgsubr
          337 1573 -105 callgsubr
        </CharString>
        <CharString name="Ydotaccent">
          123 796 hmoveto
          -82 callgsubr
          553 1605 -102 callsubr
        </CharString>
        <CharString name="Ydotbelow">
          123 796 hmoveto
          -82 callgsubr
          117 -470 -102 callsubr
        </CharString>
        <CharString name="Yericyrillic">
          -65 callsubr
          endchar
        </CharString>
        <CharString name="Ygrave">
          123 796 hmoveto
          -82 callgsubr
          381 1556 -46 callsubr
        </CharString>
        <CharString name="Yhookabove">
          123 796 hmoveto
          -82 callgsubr
          355 1797 -69 callgsubr
        </CharString>
        <CharString name="Yicyrillic">
          -658 405 hmoveto
          -92 callgsubr
          342 1573 -105 callgsubr
        </CharString>
        <CharString name="Yicyrillic.1">
          -204 1013 1573 rmoveto
          80 60 59 74 74 -60 60 -80 -80 -60 -60 -74 -74 60 -59 80 hvcurveto
          -407 0 rmoveto
          79 60 59 74 74 -60 60 -79 -80 -60 -60 -74 -74 60 -59 80 hvcurveto
          540 -412 rmoveto
          60 282 rlineto
          -268 hlineto
          -367 hlineto
          -268 hlineto
          -60 -282 rlineto
          268 hlineto
          -187 -879 rlineto
          -268 hlineto
          -60 -282 rlineto
          268 hlineto
          367 hlineto
          268 hlineto
          60 282 rlineto
          -268 hlineto
          187 879 rlineto
          endchar
        </CharString>
        <CharString name="Ymacron">
          123 796 hmoveto
          -82 callgsubr
          918 1778 -84 callsubr
          endchar
        </CharString>
        <CharString name="Ytilde">
          123 796 hmoveto
          -82 callgsubr
          677 1546 -104 callgsubr
          endchar
        </CharString>
        <CharString name="Z">
          11 -5 hmoveto
          -59 callsubr
          endchar
        </CharString>
        <CharString name="Zacute">
          11 -5 hmoveto
          -59 callsubr
          977 1323 -84 callgsubr
        </CharString>
        <CharString name="Zcaron">
          11 -5 hmoveto
          -59 callsubr
          695 1309 -86 callsubr
        </CharString>
        <CharString name="Zcircumflex">
          11 -5 hmoveto
          -59 callsubr
          1032 1636 -67 callsubr
        </CharString>
        <CharString name="Zdotaccent">
          11 -5 hmoveto
          -59 callsubr
          877 1372 -102 callsubr
        </CharString>
        <CharString name="Zdotbelow">
          11 -5 hmoveto
          -59 callsubr
          456 -703 -102 callsubr
        </CharString>
        <CharString name="Zecyrillic">
          57 508 608 -75 callsubr
          endchar
        </CharString>
        <CharString name="Zetagreek">
          11 -5 hmoveto
          -59 callsubr
          endchar
        </CharString>
        <CharString name="Zhecyrillic">
          860 926 -44 callgsubr
          endchar
        </CharString>
        <CharString name="Zlinebelow">
          11 -5 hmoveto
          -59 callsubr
          835 -459 -84 callsubr
          endchar
        </CharString>
        <CharString name="a">
          -107 callgsubr
          endchar
        </CharString>
        <CharString name="a.1">
          17 613 -106 callgsubr
          endchar
        </CharString>
        <CharString name="aacute">
          -107 callgsubr
          541 1275 -79 callgsubr
          endchar
        </CharString>
        <CharString name="aacute.1">
          17 613 -106 callgsubr
          230 1260 -79 callgsubr
          endchar
        </CharString>
        <CharString name="abreve">
          -107 callgsubr
          55 1587 -81 callsubr
          endchar
        </CharString>
        <CharString name="abreve.1">
          17 613 -106 callgsubr
          -256 1572 -81 callsubr
          endchar
        </CharString>
        <CharString name="abreveacute">
          -107 callgsubr
          287 1623 17 callsubr
          240 -336 -85 callsubr
          endchar
        </CharString>
        <CharString name="abreveacute.1">
          17 613 -106 callgsubr
          -24 1607 17 callsubr
          240 -336 -85 callsubr
          endchar
        </CharString>
        <CharString name="abrevedotbelow">
          -107 callgsubr
          55 1587 -81 callsubr
          -153 -2041 -102 callsubr
        </CharString>
        <CharString name="abrevedotbelow.1">
          17 613 -106 callgsubr
          -256 1572 -81 callsubr
          -237 -2042 -102 callsubr
        </CharString>
        <CharString name="abrevegrave">
          -107 callgsubr
          555 1619 rmoveto
          -120 289 97 callsubr
          172 -289 rlineto
          467 -47 -85 callsubr
          endchar
        </CharString>
        <CharString name="abrevegrave.1">
          17 613 -106 callgsubr
          244 1603 rmoveto
          -120 289 97 callsubr
          172 -289 rlineto
          467 -47 -85 callsubr
          endchar
        </CharString>
        <CharString name="abrevehookabove">
          -107 callgsubr
          238 1826 rmoveto
          9 29 32 4 33 hhcurveto
          54 32 -23 -38 -40 -38 -38 -62 -23 hvcurveto
          72 -115 rlineto
          124 43 99 113 104 vvcurveto
          100 -85 68 -127 -40 -50 -7 -12 -41 vhcurveto
          522 -399 -85 callsubr
          endchar
        </CharString>
        <CharString name="abrevehookabove.1">
          17 613 -106 callgsubr
          -73 1810 rmoveto
          9 29 32 4 33 hhcurveto
          54 32 -23 -38 -40 -38 -38 -62 -23 hvcurveto
          72 -115 rlineto
          124 43 99 113 104 vvcurveto
          100 -85 68 -127 -40 -50 -7 -12 -41 vhcurveto
          522 -399 -85 callsubr
          endchar
        </CharString>
        <CharString name="abrevetilde">
          -107 callgsubr
          792 1572 -36 callgsubr
        </CharString>
        <CharString name="abrevetilde.1">
          17 613 -106 callgsubr
          481 1556 -36 callgsubr
        </CharString>
        <CharString name="acaron">
          -107 callgsubr
          498 1261 -80 callgsubr
        </CharString>
        <CharString name="acaron.1">
          17 613 -106 callgsubr
          187 1246 -80 callgsubr
        </CharString>
        <CharString name="acircumflex">
          -107 callgsubr
          566 1588 -64 callgsubr
        </CharString>
        <CharString name="acircumflex.1">
          17 613 -106 callgsubr
          255 1573 -64 callgsubr
        </CharString>
        <CharString name="acircumflexacute">
          -107 callgsubr
          538 1568 -65 callgsubr
          -133 377 17 callsubr
          endchar
        </CharString>
        <CharString name="acircumflexacute.1">
          17 613 -106 callgsubr
          227 1552 -65 callgsubr
          -133 377 17 callsubr
          endchar
        </CharString>
        <CharString name="acircumflexdotbelow">
          -107 callgsubr
          566 1588 -77 callgsubr
          -646 -1715 -102 callsubr
        </CharString>
        <CharString name="acircumflexdotbelow.1">
          17 613 -106 callgsubr
          255 1573 -77 callgsubr
          -730 -1716 -102 callsubr
        </CharString>
        <CharString name="acircumflexgrave">
          -107 callgsubr
          914 1619 -9 callgsubr
          -146 -51 -65 callgsubr
          endchar
        </CharString>
        <CharString name="acircumflexgrave.1">
          17 613 -106 callgsubr
          603 1603 -9 callgsubr
          -146 -51 -65 callgsubr
          endchar
        </CharString>
        <CharString name="acircumflexhookabove">
          -107 callgsubr
          574 1807 -52 callsubr
        </CharString>
        <CharString name="acircumflexhookabove.1">
          17 613 -106 callgsubr
          263 1791 -52 callsubr
        </CharString>
        <CharString name="acircumflextilde">
          -107 callgsubr
          535 1553 -63 callgsubr
        </CharString>
        <CharString name="acircumflextilde.1">
          17 613 -106 callgsubr
          224 1537 -63 callgsubr
        </CharString>
        <CharString name="acute">
          -207 722 1259 -79 callgsubr
          endchar
        </CharString>
        <CharString name="acutecmb">
          375 1259 -79 callgsubr
          endchar
        </CharString>
        <CharString name="acutecmb.short">
          392 1556 -84 callgsubr
        </CharString>
        <CharString name="acutedotaccentcmb">
          494 1259 -79 callgsubr
          -216 -9 -71 callgsubr
        </CharString>
        <CharString name="acutedotaccentcmb.short">
          584 1560 49 callsubr
        </CharString>
        <CharString name="acyrillic">
          -107 callgsubr
          endchar
        </CharString>
        <CharString name="acyrillic.1">
          25 622 -106 callgsubr
          endchar
        </CharString>
        <CharString name="adblgrave">
          -107 callgsubr
          324 1276 -41 callgsubr
        </CharString>
        <CharString name="adblgrave.1">
          17 613 -106 callgsubr
          13 1261 -41 callgsubr
        </CharString>
        <CharString name="adieresis">
          -107 callgsubr
          186 1262 -105 callgsubr
        </CharString>
        <CharString name="adieresis.1">
          17 613 -106 callgsubr
          -125 1247 -105 callgsubr
        </CharString>
        <CharString name="adieresismacron">
          -107 callgsubr
          169 1244 -37 callgsubr
        </CharString>
        <CharString name="adieresismacron.1">
          17 613 -106 callgsubr
          -142 1228 -37 callgsubr
        </CharString>
        <CharString name="adotaccent">
          -107 callgsubr
          382 1267 -71 callgsubr
        </CharString>
        <CharString name="adotaccent.1">
          17 613 -106 callgsubr
          71 1252 -71 callgsubr
        </CharString>
        <CharString name="adotbelow">
          -107 callgsubr
          109 -454 -102 callsubr
        </CharString>
        <CharString name="adotbelow.1">
          17 613 -106 callgsubr
          -286 -470 -102 callsubr
        </CharString>
        <CharString name="adotmacron">
          -107 callgsubr
          377 1232 -6 callsubr
        </CharString>
        <CharString name="adotmacron.1">
          17 613 -106 callgsubr
          66 1216 -6 callsubr
        </CharString>
        <CharString name="ae">
          581 1242 -89 callsubr
          endchar
        </CharString>
        <CharString name="aeacute">
          581 1242 -89 callsubr
          752 1041 -79 callgsubr
          endchar
        </CharString>
        <CharString name="aemacron">
          581 1242 -89 callsubr
          955 1224 -77 callsubr
        </CharString>
        <CharString name="agrave">
          -107 callgsubr
          472 1275 -35 callsubr
        </CharString>
        <CharString name="agrave.1">
          17 613 -106 callgsubr
          161 1260 -35 callsubr
        </CharString>
        <CharString name="ahookabove">
          -107 callgsubr
          229 1516 -71 callsubr
        </CharString>
        <CharString name="ahookabove.1">
          17 613 -106 callgsubr
          -82 1500 -71 callsubr
        </CharString>
        <CharString name="ainvertedbreve">
          -107 callgsubr
          720 1243 -60 callsubr
        </CharString>
        <CharString name="ainvertedbreve.1">
          17 613 -106 callgsubr
          409 1227 -60 callsubr
        </CharString>
        <CharString name="alphagreek">
          -18 callgsubr
          endchar
        </CharString>
        <CharString name="alphatonosgreek">
          -18 callgsubr
          24 1006 10 callsubr
        </CharString>
        <CharString name="amacron">
          -107 callgsubr
          744 1458 -77 callsubr
        </CharString>
        <CharString name="amacron.1">
          17 613 -106 callgsubr
          433 1443 -77 callsubr
        </CharString>
        <CharString name="ampersand">
          223 658 1078 rmoveto
          88 70 70 86 77 53 -47 -72 -90 -58 -71 -144 -54 vhcurveto
          -61 78 -23 48 50 vvcurveto
          -47 -863 rmoveto
          -140 -94 75 104 90 63 74 118 45 hvcurveto
          6 2 24 9 11 4 230 -348 rcurveline
          -38 -69 -78 -17 -71 hhcurveto
          395 -215 rmoveto
          351 hlineto
          -162 242 133 138 83 170 18 183 rlinecurve
          3 29 rlineto
          -285 hlineto
          -2 -24 -7 -97 -35 -92 -59 -85 rlinecurve
          -180 266 rlineto
          252 101 119 143 174 vvcurveto
          179 -183 134 -244 -254 -190 -153 -199 -92 35 -89 81 -116 vhcurveto
          -77 -31 rlineto
          -231 -91 -118 -143 -183 vvcurveto
          -227 222 -165 302 134 132 34 62 117 vhcurveto
          endchar
        </CharString>
        <CharString name="anoteleia">
          -671 391 643 22 callgsubr
          endchar
        </CharString>
        <CharString name="aogonek">
          -123 512 225 rmoveto
          -84 -57 42 62 73 67 48 104 4 hvcurveto
          199 6 -18 -81 rlineto
          -90 -19 -88 -64 -104 hhcurveto
          329 -669 53 callsubr
          28 45 75 121 93 127 36 hvcurveto
          32 9 147 692 rlineto
          5 22 3 37 30 vvcurveto
          194 -187 131 -277 -270 -199 -137 -220 -41 vhcurveto
          315 hlineto
          67 21 62 37 87 hhcurveto
          93 60 -40 -62 -12 -1 -8 -3 -16 hvcurveto
          -13 -64 -257 -8 rlineto
          -305 -9 -183 -138 -222 vvcurveto
          -169 139 -125 183 137 112 56 87 58 vhcurveto
          7 hlineto
          -31 -142 rlineto
          -119 -67 -86 -86 -114 72 callsubr
          75 56 11 14 31 vhcurveto
          endchar
        </CharString>
        <CharString name="aogonek.1">
          17 613 250 rmoveto
          -109 -70 84 130 205 115 162 149 109 71 -85 -128 -200 -119 -168 -146 hvcurveto
          353 -694 rmoveto
          37 174 rlineto
          -5 -15 -28 -5 -30 hhcurveto
          -57 -46 28 45 74 118 93 130 37 hvcurveto
          31 9 231 1083 rlineto
          -335 hlineto
          -40 -188 rlineto
          -16 hlineto
          123 -36 -125 81 -161 hhcurveto
          -312 -232 -297 -397 -262 143 -165 230 137 115 62 114 78 hvcurveto
          14 hlineto
          -38 -178 rlineto
          -111 -66 -84 -86 -110 72 callsubr
          75 56 11 14 30 vhcurveto
          endchar
        </CharString>
        <CharString name="approxequal">
          106 974 597 -11 callgsubr
        </CharString>
        <CharString name="approxequal.uc">
          106 1002 752 -11 callgsubr
        </CharString>
        <CharString name="aring">
          -107 callgsubr
          400 1231 -89 callgsubr
        </CharString>
        <CharString name="aring.1">
          17 613 -106 callgsubr
          89 1216 -89 callgsubr
        </CharString>
        <CharString name="aringacute">
          -107 callgsubr
          326 1739 -26 callgsubr
        </CharString>
        <CharString name="aringacute.1">
          17 613 -106 callgsubr
          15 1723 -26 callgsubr
        </CharString>
        <CharString name="aringbelow">
          -107 callgsubr
          120 -519 -89 callgsubr
        </CharString>
        <CharString name="aringbelow.1">
          17 613 -106 callgsubr
          -275 -535 -89 callgsubr
        </CharString>
        <CharString name="asciicircum">
          -227 542 1141 rmoveto
          18 hlineto
          88 -333 rlineto
          293 hlineto
          -194 604 rlineto
          -296 hlineto
          -454 -604 rlineto
          308 hlineto
          endchar
        </CharString>
        <CharString name="asciitilde">
          106 954 464 rmoveto
          198 122 153 299 50 hvcurveto
          -260 hlineto
          -106 -21 -48 -52 -59 -117 -50 192 -211 hhcurveto
          -189 -136 -151 -299 -51 hvcurveto
          260 hlineto
          105 22 46 51 60 124 48 -192 212 hhcurveto
          endchar
        </CharString>
        <CharString name="asterisk">
          -294 889 788 rmoveto
          128 167 -238 136 281 86 -74 195 -249 -138 79 268 -215 22 -17 -281 -195 188 -129 -169 234 -136 -277 -84 74 -192 250 139 -81 -270 212 -23 17 286 rlineto
          endchar
        </CharString>
        <CharString name="asterisk.uc">
          106 1149 234 rmoveto
          195 241 -368 218 431 136 -105 275 -406 -213 122 440 -302 31 -33 -455 -321 294 -195 -241 366 -219 -427 -132 104 -277 409 216 -123 -442 301 -31 35 446 rlineto
          endchar
        </CharString>
        <CharString name="at">
          572 1061 1446 -31 callsubr
        </CharString>
        <CharString name="at.uc">
          572 1085 1562 -31 callsubr
        </CharString>
        <CharString name="atilde">
          -107 callgsubr
          517 1262 -104 callgsubr
          endchar
        </CharString>
        <CharString name="atilde.1">
          17 613 -106 callgsubr
          206 1247 -104 callgsubr
          endchar
        </CharString>
        <CharString name="austral">
          106 911 hmoveto
          368 hlineto
          -30 328 rlineto
          72 hlineto
          36 170 rlineto
          -121 hlineto
          -13 138 rlineto
          163 hlineto
          38 169 rlineto
          -215 hlineto
          -53 638 rlineto
          -448 hlineto
          -336 -638 rlineto
          -262 hlineto
          -37 -169 rlineto
          210 hlineto
          -73 -138 rlineto
          -167 hlineto
          -36 -170 rlineto
          113 hlineto
          -174 -328 rlineto
          364 hlineto
          161 328 rlineto
          426 hlineto
          -49 774 rmoveto
          19 hlineto
          13 -300 rlineto
          -179 hlineto
          191 -304 rmoveto
          -339 hlineto
          69 141 rlineto
          263 hlineto
          endchar
        </CharString>
        <CharString name="b">
          -53 callgsubr
          endchar
        </CharString>
        <CharString name="backslash">
          -491 286 -312 98 callsubr
        </CharString>
        <CharString name="backslash.uc">
          -491 319 -156 98 callsubr
        </CharString>
        <CharString name="baht">
          106 882 1188 rmoveto
          74 -15 42 -46 -71 vvcurveto
          -99 -73 -75 -111 -16 vhcurveto
          -49 -228 rmoveto
          104 -10 59 -56 -89 vvcurveto
          -126 -99 -87 -142 -3 vhcurveto
          -261 0 rmoveto
          79 373 rlineto
          117 hlineto
          -79 -373 rlineto
          81 926 rmoveto
          115 hlineto
          -70 -330 rlineto
          -116 hlineto
          465 -98 rmoveto
          191 20 143 157 192 vvcurveto
          184 -166 125 -246 vhcurveto
          -4 hlineto
          30 141 rlineto
          -144 hlineto
          -30 -141 rlineto
          -473 hlineto
          -307 -1443 rlineto
          474 hlineto
          -29 -136 rlineto
          144 hlineto
          29 136 rlineto
          111 hlineto
          315 225 190 266 148 -104 111 -160 31 hvcurveto
          endchar
        </CharString>
        <CharString name="bar">
          -491 408 -312 85 callgsubr
        </CharString>
        <CharString name="bar.uc">
          -491 441 -156 85 callgsubr
        </CharString>
        <CharString name="bdotaccent">
          -53 callgsubr
          -83 1347 -102 callsubr
        </CharString>
        <CharString name="bdotbelow">
          -53 callgsubr
          -203 -723 -102 callsubr
        </CharString>
        <CharString name="becyrillic">
          -14 812 1056 rmoveto
          -155 -116 -61 -132 -91 hvcurveto
          -15 hlineto
          62 210 134 105 222 14 rrcurveto
          5 151 9 1 1 hvcurveto
          153 9 69 9 47 18 65 270 rcurveline
          -45 -15 -74 -11 -179 -12 rrcurveto
          -1 -148 -10 -4 hhcurveto
          -364 -26 -236 -172 -118 -324 -43 -116 -24 -130 -4 -143 rrcurveto
          -353 -9 193 -219 319 hhcurveto
          365 232 244 389 10 hvcurveto
          276 8 -152 170 -258 hhcurveto
          -187 -814 rmoveto
          -114 -71 94 138 3 hvcurveto
          194 5 107 140 146 hhcurveto
          112 67 -91 -145 -3 hvcurveto
          -182 -5 -112 -148 -135 hhcurveto
          endchar
        </CharString>
        <CharString name="betagreek">
          35 203 935 rmoveto
          -273 -1287 60 callgsubr
          119 554 rlineto
          8 hlineto
          -140 61 126 -78 161 hhcurveto
          308 199 197 279 162 -88 111 -166 40 hvcurveto
          2 6 rlineto
          154 44 93 115 164 vvcurveto
          225 -182 142 -276 -338 -169 -155 -379 -81 vhcurveto
          384 -294 rmoveto
          83 hlineto
          146 88 -60 -116 -122 -101 -88 -132 -137 -85 81 121 24 4 32 7 32 hvcurveto
          95 440 rlineto
          154 34 75 67 106 hhcurveto
          94 64 -51 -89 -123 -86 -59 -128 hvcurveto
          -75 hlineto
          endchar
        </CharString>
        <CharString name="bitcoin">
          106 585 857 rmoveto
          69 317 rlineto
          149 hlineto
          105 61 -48 -84 -107 -90 -78 -130 hvcurveto
          -286 -572 rmoveto
          77 359 rlineto
          172 hlineto
          120 69 -56 -96 -122 -99 -85 -141 hvcurveto
          327 478 rmoveto
          184 20 137 150 184 vvcurveto
          149 -113 109 -177 30 vhcurveto
          46 216 rlineto
          -151 hlineto
          -44 -207 rlineto
          -144 hlineto
          43 207 rlineto
          -151 hlineto
          -44 -207 rlineto
          -206 hlineto
          -295 -1385 rlineto
          210 hlineto
          -4 -1 -45 -213 rlineto
          151 hlineto
          45 212 5 2 rlineto
          140 hlineto
          1 -1 -46 -213 rlineto
          151 hlineto
          46 214 rlineto
          301 2 212 182 254 vvcurveto
          142 -100 106 -153 30 vhcurveto
          endchar
        </CharString>
        <CharString name="blinebelow">
          -53 callgsubr
          176 -479 -84 callsubr
          endchar
        </CharString>
        <CharString name="braceleft">
          -491 178 205 -18 callsubr
        </CharString>
        <CharString name="braceleft.uc">
          -491 211 361 -18 callsubr
        </CharString>
        <CharString name="braceright">
          -491 672 926 -17 callgsubr
        </CharString>
        <CharString name="braceright.uc">
          -491 706 1082 -17 callgsubr
        </CharString>
        <CharString name="bracketleft">
          -491 379 69 callsubr
          -374 -1755 rlineto
          607 hlineto
          54 257 70 callgsubr
          265 1241 rlineto
          267 hlineto
          55 257 rlineto
          endchar
        </CharString>
        <CharString name="bracketleft.uc">
          -491 413 1599 rmoveto
          -374 -1755 rlineto
          607 hlineto
          54 257 70 callgsubr
          265 1241 rlineto
          267 hlineto
          55 257 rlineto
          endchar
        </CharString>
        <CharString name="bracketright">
          -491 471 -312 55 callsubr
        </CharString>
        <CharString name="bracketright.uc">
          -491 505 -156 55 callsubr
        </CharString>
        <CharString name="breve">
          -206 402 1571 -81 callsubr
          endchar
        </CharString>
        <CharString name="breveacutecmb">
          124 1622 17 callsubr
          240 -336 -85 callsubr
          endchar
        </CharString>
        <CharString name="breveacutecmb.short">
          173 1903 -3 callsubr
          -178 -630 -42 callgsubr
        </CharString>
        <CharString name="brevebelowcmb">
          -491 -145 1 callsubr
        </CharString>
        <CharString name="brevecmb">
          -111 1571 -81 callsubr
          endchar
        </CharString>
        <CharString name="brevecmb.short">
          -64 1865 -74 callgsubr
          endchar
        </CharString>
        <CharString name="brevecyrillic">
          -254 387 1586 -83 callgsubr
        </CharString>
        <CharString name="brevecyrillic.short">
          -62 1868 -75 callgsubr
        </CharString>
        <CharString name="brevegravecmb">
          392 1618 rmoveto
          -120 289 97 callsubr
          172 -289 rlineto
          467 -47 -85 callsubr
          endchar
        </CharString>
        <CharString name="brevegravecmb.short">
          452 1903 21 callgsubr
        </CharString>
        <CharString name="brevehookabovecmb">
          75 1825 rmoveto
          9 29 32 4 33 hhcurveto
          54 32 -23 -38 -40 -38 -38 -62 -23 hvcurveto
          72 -115 rlineto
          124 43 99 113 104 vvcurveto
          100 -85 68 -127 -40 -50 -7 -12 -41 vhcurveto
          522 -399 -85 callsubr
          endchar
        </CharString>
        <CharString name="brevehookabovecmb.short">
          128 2050 rmoveto
          8 21 34 5 36 hhcurveto
          54 33 -22 -37 -36 -35 -32 -54 -16 hvcurveto
          73 -106 rlineto
          118 35 90 92 103 vvcurveto
          96 -87 66 -127 -38 -45 -6 -11 -40 vhcurveto
          85 -651 -42 callgsubr
        </CharString>
        <CharString name="brevetildecmb">
          629 1571 -36 callgsubr
        </CharString>
        <CharString name="brevetildecmb.short">
          474 1894 rmoveto
          134 113 110 169 35 hvcurveto
          -182 hlineto
          -68 -16 -35 -38 -43 -73 -41 122 -137 hhcurveto
          -136 -110 -106 -170 -35 hvcurveto
          182 hlineto
          65 14 37 38 41 72 42 -122 138 hhcurveto
          -228 -356 -42 callgsubr
        </CharString>
        <CharString name="brokenbar">
          -491 634 755 51 callsubr
        </CharString>
        <CharString name="brokenbar.uc">
          -491 668 911 51 callsubr
        </CharString>
        <CharString name="bullet">
          -294 524 185 14 callsubr
        </CharString>
        <CharString name="bullet.uc">
          -294 557 337 14 callsubr
        </CharString>
        <CharString name="c">
          -106 692 1115 -90 callgsubr
          endchar
        </CharString>
        <CharString name="cacute">
          -106 692 1115 -90 callgsubr
          236 145 -79 callgsubr
          endchar
        </CharString>
        <CharString name="caron">
          -207 846 1245 -80 callgsubr
        </CharString>
        <CharString name="caroncmb">
          332 1245 -80 callgsubr
        </CharString>
        <CharString name="caroncmb.short">
          110 1542 -86 callsubr
        </CharString>
        <CharString name="carondotaccentcmb">
          58 1245 11 callsubr
          439 127 rmoveto
          100 68 71 90 92 -68 72 -100 -99 -68 -72 -92 -90 68 -71 99 hvcurveto
          endchar
        </CharString>
        <CharString name="carondotaccentcmb.short">
          113 1537 36 callgsubr
        </CharString>
        <CharString name="caronslovak">
          -252 588 58 callsubr
          endchar
        </CharString>
        <CharString name="ccaron">
          -106 692 1115 -90 callgsubr
          193 131 -80 callgsubr
        </CharString>
        <CharString name="ccedilla">
          -106 1169 672 rmoveto
          6 0 3 34 vvcurveto
          224 -194 176 -283 -369 -235 -265 -406 -246 143 -174 239 -41 vhcurveto
          -63 -86 -26 -113 rlineto
          58 hlineto
          89 32 -12 -33 -34 -40 -18 -75 -42 -45 6 9 -30 hvcurveto
          -32 -150 rlineto
          -11 29 59 -7 59 hhcurveto
          180 129 95 132 86 -53 53 -97 9 hvcurveto
          50 69 250 26 186 171 34 240 rlinecurve
          -329 hlineto
          -102 -27 -71 -62 -98 hhcurveto
          -100 -65 81 126 225 100 155 144 102 61 -68 -98 1 hvcurveto
          endchar
        </CharString>
        <CharString name="ccedillaacute">
          -106 1256 1576 rmoveto
          -312 hlineto
          -293 -316 rlineto
          277 hlineto
          -521 -1363 rmoveto
          -26 -113 rlineto
          58 hlineto
          89 32 -12 -33 -34 -40 -18 -75 -42 -45 6 9 -30 hvcurveto
          -32 -150 rlineto
          -11 29 59 -7 59 hhcurveto
          180 129 95 132 86 -53 53 -97 9 hvcurveto
          50 69 250 26 186 171 34 240 rlinecurve
          -329 hlineto
          -102 -27 -71 -62 -98 hhcurveto
          -100 -65 81 126 225 100 155 144 102 61 -68 -98 1 hvcurveto
          329 hlineto
          6 0 3 34 vvcurveto
          224 -194 176 -283 -369 -235 -265 -406 -246 143 -174 239 -41 vhcurveto
          endchar
        </CharString>
        <CharString name="ccircumflex">
          -106 692 1115 -90 callgsubr
          261 458 -64 callgsubr
        </CharString>
        <CharString name="cdotaccent">
          -106 692 1115 -90 callgsubr
          77 137 -71 callgsubr
        </CharString>
        <CharString name="cedi">
          106 445 594 rmoveto
          297 148 238 193 37 vhcurveto
          1 1 0 1 hhcurveto
          -187 -878 rlineto
          -101 44 -56 110 152 vvcurveto
          942 -102 rmoveto
          -356 hlineto
          -38 -116 -96 -86 -122 -19 rrcurveto
          -1 -1 0 -1 hhcurveto
          190 884 94 -34 58 -83 3 -110 rlinecurve
          -12 0 -4 -1 -3 vhcurveto
          353 hlineto
          3 20 0 18 20 vvcurveto
          242 -185 201 -261 56 vhcurveto
          25 118 rlineto
          -175 hlineto
          -20 -102 rlineto
          -2 -1 0 -1 hhcurveto
          -453 -10 -328 -373 -525 vvcurveto
          -320 177 -225 286 -57 vhcurveto
          -22 -108 rlineto
          174 hlineto
          20 93 rlineto
          0 1 0 1 vhcurveto
          353 9 269 213 57 313 rrcurveto
          endchar
        </CharString>
        <CharString name="cedilla">
          -191 243 -216 -93 callsubr
        </CharString>
        <CharString name="cedillacmb">
          -285 -216 -93 callsubr
        </CharString>
        <CharString name="cent">
          106 1258 534 rmoveto
          -331 hlineto
          -100 -30 -72 -52 -97 hhcurveto
          -89 -86 64 154 226 101 179 158 95 71 -53 -100 3 hvcurveto
          329 hlineto
          14 0 15 -1 13 vhcurveto
          -6 145 -100 147 -180 63 44 202 rcurveline
          -280 hlineto
          -38 -178 rlineto
          -332 -41 -213 -287 -367 vvcurveto
          -216 116 -158 188 -63 vhcurveto
          -45 -213 rlineto
          280 hlineto
          38 184 276 27 169 181 32 214 rlinecurve
          endchar
        </CharString>
        <CharString name="checyrillic">
          -19 callgsubr
          endchar
        </CharString>
        <CharString name="chigreek">
          -98 853 -341 rmoveto
          66 67 9 10 33 hvcurveto
          51 239 rlineto
          -4 -12 -27 -4 -18 hhcurveto
          -73 -32 22 109 -39 hvcurveto
          -106 307 566 743 rlineto
          -338 hlineto
          -325 -455 rlineto
          -7 hlineto
          -89 276 rlineto
          136 -45 -73 55 -140 hhcurveto
          -49 -73 -9 -9 -36 hvcurveto
          -51 -240 rlineto
          5 14 28 4 19 hhcurveto
          59 28 -31 -94 34 hvcurveto
          127 -351 -539 -710 rlineto
          335 hlineto
          290 417 rlineto
          10 hlineto
          82 -244 rlineto
          -124 44 76 -57 143 hhcurveto
          endchar
        </CharString>
        <CharString name="circumflex">
          -207 917 1572 -64 callgsubr
        </CharString>
        <CharString name="circumflexacutecmb">
          375 1567 -65 callgsubr
          -133 377 17 callsubr
          endchar
        </CharString>
        <CharString name="circumflexacutecmb.short">
          21 callsubr
          -37 71 -3 callsubr
          endchar
        </CharString>
        <CharString name="circumflexbelowcmb">
          15 -165 -64 callsubr
        </CharString>
        <CharString name="circumflexcmb">
          400 1572 -64 callgsubr
        </CharString>
        <CharString name="circumflexcmb.short">
          447 1869 -67 callsubr
        </CharString>
        <CharString name="circumflexgravecmb">
          751 1618 -9 callgsubr
          -146 -51 -65 callgsubr
          endchar
        </CharString>
        <CharString name="circumflexgravecmb.short">
          21 callsubr
          237 71 4 callsubr
          endchar
        </CharString>
        <CharString name="circumflexhookabovecmb">
          411 1806 -52 callsubr
        </CharString>
        <CharString name="circumflexhookabovecmb.short">
          21 callsubr
          7 169 rmoveto
          11 32 37 7 35 hhcurveto
          56 37 -25 -39 -47 -38 -41 -58 -20 hvcurveto
          75 -120 rlineto
          132 51 96 103 125 vvcurveto
          104 -86 64 -135 -52 -60 -9 -16 -38 vhcurveto
          endchar
        </CharString>
        <CharString name="circumflextildecmb">
          372 1552 -63 callgsubr
        </CharString>
        <CharString name="circumflextildecmb.short">
          472 1894 -45 callgsubr
        </CharString>
        <CharString name="colon">
          -671 74 callsubr
          150 705 38 callgsubr
          endchar
        </CharString>
        <CharString name="colon.uc">
          -671 293 184 22 callgsubr
          150 705 38 callgsubr
          endchar
        </CharString>
        <CharString name="coloncurrency">
          106 1043 1176 rmoveto
          46 -2 50 -5 45 -8 -424 -861 rcurveline
          -45 15 -40 19 -34 25 rrcurveto
          -111 143 rmoveto
          -19 47 -9 54 61 vvcurveto
          230 134 192 213 66 vhcurveto
          725 434 rmoveto
          -181 hlineto
          -73 -147 -35 10 -48 10 -51 7 rlinecurve
          59 120 rlineto
          -182 hlineto
          -52 -105 rlineto
          -5 -6 0 -5 hhcurveto
          -539 -329 -408 -452 -194 82 -165 146 -116 hvcurveto
          -144 -292 rlineto
          182 hlineto
          101 206 39 -18 42 -16 44 -14 rlinecurve
          -78 -158 rlineto
          181 hlineto
          61 124 rlineto
          -7 53 56 -4 59 hhcurveto
          45 80 8 6 22 hvcurveto
          64 298 rlineto
          -6 -33 -66 -9 -42 hhcurveto
          -33 -32 1 3 -30 hvcurveto
          endchar
        </CharString>
        <CharString name="comma">
          -673 200 -331 rmoveto
          258 44 callgsubr
          endchar
        </CharString>
        <CharString name="commaaccent">
          -207 386 -475 -39 callsubr
        </CharString>
        <CharString name="commabelowcmb">
          -246 -475 -39 callsubr
        </CharString>
        <CharString name="copyright">
          406 884 -120 rmoveto
          439 357 359 441 442 -328 323 -448 -438 -358 -359 -441 -441 329 -324 447 hvcurveto
          168 vmoveto
          -349 -251 251 346 346 280 286 340 350 250 -250 -347 -346 -280 -286 -340 hvcurveto
          379 696 rmoveto
          173 15 -140 134 -200 hhcurveto
          -231 -170 -187 -253 -198 138 -138 200 178 127 95 167 44 hvcurveto
          -223 hlineto
          -58 -28 -36 -25 -56 hhcurveto
          -78 -45 55 96 150 76 117 99 71 44 -48 -80 -1 hvcurveto
          endchar
        </CharString>
        <CharString name="cruzeiro">
          106 1132 -16 rmoveto
          65 295 rlineto
          -8 -47 -61 -7 -33 hhcurveto
          -38 -37 2 3 -33 hvcurveto
          30 145 rlineto
          153 33 64 66 115 hhcurveto
          53 53 -13 -21 34 hvcurveto
          65 289 rlineto
          15 -28 -36 7 -42 hhcurveto
          -100 -85 -62 -105 -48 hvcurveto
          -14 hlineto
          30 152 rlineto
          -257 hlineto
          -116 -545 rlineto
          -105 64 -57 107 143 vvcurveto
          293 217 218 299 95 124 -20 -24 55 vhcurveto
          63 294 rlineto
          30 -77 -158 24 -124 hhcurveto
          -509 -361 -343 -478 -411 307 -280 449 100 89 10 7 26 hvcurveto
          endchar
        </CharString>
        <CharString name="currency">
          106 522 645 rmoveto
          119 100 102 119 119 100 -102 -119 -119 -100 -101 -119 -119 -100 101 119 vhcurveto
          862 367 rmoveto
          -157 199 -208 -172 rlineto
          55 -79 -96 33 -103 hhcurveto
          -57 -55 -10 -18 -50 hvcurveto
          -101 126 -239 -196 98 -122 rlineto
          -49 -75 -29 -90 -97 vvcurveto
          -70 15 -67 27 -61 vhcurveto
          -204 -169 157 -198 208 172 rlineto
          -56 79 96 -33 104 hhcurveto
          57 54 10 18 51 hvcurveto
          100 -125 239 196 -97 121 rlineto
          49 76 29 90 96 vvcurveto
          71 -15 67 -28 61 vhcurveto
          endchar
        </CharString>
        <CharString name="cyrilliccentraldescender">
          -586 415 61 callgsubr
          endchar
        </CharString>
        <CharString name="cyrilliccentraldescendercap">
          -586 418 60 callsubr
          endchar
        </CharString>
        <CharString name="cyrillicdescender">
          -252 308 -251 rmoveto
          320 22 callsubr
          195 hlineto
          endchar
        </CharString>
        <CharString name="cyrillicdescender.short">
          -253 268 75 callgsubr
          endchar
        </CharString>
        <CharString name="cyrillicdescendercap">
          -252 307 -4 callsubr
          endchar
        </CharString>
        <CharString name="cyrillicdescendercap.short">
          -252 252 46 callsubr
          endchar
        </CharString>
        <CharString name="cyrillichook">
          -253 104 80 callgsubr
          -327 76 -2 -10 rlineto
          -101 -22 -43 77 callsubr
          endchar
        </CharString>
        <CharString name="cyrillichookcap">
          -252 80 -354 rmoveto
          -10 33 102 callgsubr
          3 13 -368 35 -2 -10 rlineto
          -94 -19 -38 -33 -84 hhcurveto
          -14 -24 1 3 -10 hvcurveto
          endchar
        </CharString>
        <CharString name="cyrillictail">
          -253 203 -251 rmoveto
          309 hlineto
          229 461 13 64 rlineto
          -528 hlineto
          -60 -274 rlineto
          161 hlineto
          endchar
        </CharString>
        <CharString name="cyrillictailcap">
          -252 190 118 callsubr
          15 68 rlineto
          -581 34 callgsubr
          179 hlineto
          endchar
        </CharString>
        <CharString name="d">
          16 454 -16 -5 callsubr
        </CharString>
        <CharString name="dagger">
          -294 692 1042 rmoveto
          233 hlineto
          58 273 rlineto
          -233 hlineto
          57 264 rlineto
          -286 105 callgsubr
          -233 hlineto
          -58 -273 rlineto
          233 hlineto
          -105 -496 rlineto
          285 hlineto
          endchar
        </CharString>
        <CharString name="daggerdbl">
          -294 861 742 rmoveto
          51 239 rlineto
          -233 hlineto
          18 83 17 83 rlineto
          234 hlineto
          50 239 rlineto
          -232 hlineto
          41 193 rlineto
          -286 hlineto
          -41 -193 rlineto
          -233 hlineto
          -51 -239 rlineto
          234 hlineto
          -18 -83 -18 -83 rlineto
          -233 hlineto
          -51 -239 rlineto
          233 hlineto
          -41 -196 rlineto
          285 hlineto
          42 196 rlineto
          endchar
        </CharString>
        <CharString name="dblgrave">
          -207 772 1260 -41 callgsubr
        </CharString>
        <CharString name="dblgravecmb">
          158 1260 -41 callgsubr
        </CharString>
        <CharString name="dblgravecmb.short">
          -103 1556 rmoveto
          255 hlineto
          -163 314 rlineto
          -296 hlineto
          639 -314 -46 callsubr
        </CharString>
        <CharString name="dcaron">
          318 1522 69 callsubr
          -108 88 callsubr
          158 511 rlineto
          -1354 -1459 -5 callsubr
        </CharString>
        <CharString name="dcircumflexbelow">
          16 454 -16 -97 callsubr
          128 -415 -64 callsubr
        </CharString>
        <CharString name="dcommaaccent">
          16 454 -16 -97 callsubr
          -133 -725 -39 callsubr
        </CharString>
        <CharString name="dcroat">
          16 614 250 rmoveto
          -108 -70 84 129 209 117 159 148 109 71 -85 -125 -203 -121 -168 -146 hvcurveto
          873 1104 rmoveto
          -96 hlineto
          19 89 rlineto
          -344 hlineto
          -19 -89 rlineto
          -226 hlineto
          -38 -178 rlineto
          226 hlineto
          -58 -273 rlineto
          -8 hlineto
          124 -36 -119 78 -161 hhcurveto
          -312 -233 -297 -399 -261 143 -164 229 146 116 61 113 77 hvcurveto
          7 hlineto
          -34 -158 rlineto
          337 hlineto
          250 1176 rlineto
          97 hlineto
          endchar
        </CharString>
        <CharString name="ddotaccent">
          16 454 -16 -97 callsubr
          697 1355 -102 callsubr
        </CharString>
        <CharString name="ddotbelow">
          16 454 -16 -97 callsubr
          -36 -720 -102 callsubr
        </CharString>
        <CharString name="decyrillic">
          60 794 256 rmoveto
          -384 hlineto
          4 18 53 64 42 89 31 113 rlinecurve
          -1 -2 84 296 2 vvcurveto
          295 hlineto
          392 253 rmoveto
          -924 hlineto
          -2 -146 -526 1 2 vhcurveto
          -48 -173 -59 -99 -74 -35 rrcurveto
          -81 hlineto
          -115 -536 rlineto
          312 hlineto
          60 280 rlineto
          688 hlineto
          -60 -280 rlineto
          312 hlineto
          114 536 rlineto
          -157 hlineto
          endchar
        </CharString>
        <CharString name="decyrillic.1">
          -2 616 242 rmoveto
          -113 -72 95 142 3 hvcurveto
          194 5 106 141 144 hhcurveto
          113 70 -91 -142 -3 hvcurveto
          -189 -5 -110 -150 -138 hhcurveto
          7 806 rmoveto
          -314 -209 -224 -334 -309 202 -204 307 377 231 276 507 16 hvcurveto
          473 15 -215 274 -406 hhcurveto
          -108 -99 -19 -17 -55 hvcurveto
          -59 -277 rlineto
          28 68 94 15 100 hhcurveto
          199 134 -116 -186 12 hvcurveto
          -17 hlineto
          77 -70 -85 36 -118 hhcurveto
          endchar
        </CharString>
        <CharString name="degree">
          -492 542 785 rmoveto
          191 145 145 191 191 -144 144 -192 -191 -145 -144 -191 -191 146 -145 190 hvcurveto
          1 195 rmoveto
          -75 -63 65 76 78 63 63 75 77 60 -63 -78 -76 -59 -65 -78 hvcurveto
          endchar
        </CharString>
        <CharString name="deltagreek">
          -46 564 -26 rmoveto
          376 249 247 312 217 -98 107 -255 171 hvcurveto
          -75 48 -23 26 36 vvcurveto
          51 37 35 87 105 107 -33 -58 110 vhcurveto
          61 231 rlineto
          63 -93 -169 41 -169 hhcurveto
          -271 -169 -120 -188 -92 52 -75 93 -54 hvcurveto
          -1 -4 -1 -3 rlineto
          -277 -49 -179 -185 -289 vvcurveto
          -267 199 -168 304 vhcurveto
          13 239 rmoveto
          -101 -64 75 127 208 108 128 143 100 62 -76 -125 -207 -103 -130 -145 hvcurveto
          endchar
        </CharString>
        <CharString name="dieresis">
          -207 539 1246 -105 callgsubr
        </CharString>
        <CharString name="dieresisacutecmb">
          124 1622 rmoveto
          253 hlineto
          298 285 rlineto
          -287 hlineto
          -369 -663 -105 callgsubr
        </CharString>
        <CharString name="dieresisacutecmb.short">
          174 1903 -3 callsubr
          -350 -610 -33 callgsubr
        </CharString>
        <CharString name="dieresisbelowcmb">
          -352 -443 7 callsubr
        </CharString>
        <CharString name="dieresiscaroncmb">
          6 1243 -47 callsubr
          -296 346 11 callsubr
          endchar
        </CharString>
        <CharString name="dieresiscaroncmb.short">
          201 1900 13 callgsubr
        </CharString>
        <CharString name="dieresiscmb">
          20 1246 -105 callgsubr
        </CharString>
        <CharString name="dieresiscmb.short">
          75 1573 -105 callgsubr
        </CharString>
        <CharString name="dieresisgravecmb">
          391 1618 -9 callgsubr
          -142 -374 -105 callgsubr
        </CharString>
        <CharString name="dieresisgravecmb.short">
          455 1903 4 callsubr
          -142 -345 -33 callgsubr
        </CharString>
        <CharString name="dieresismacroncmb">
          6 1243 -37 callgsubr
        </CharString>
        <CharString name="dieresismacroncmb.short">
          63 1819 rmoveto
          -39 callgsubr
          661 279 -84 callsubr
          -203 -114 rmoveto
          81 callsubr
        </CharString>
        <CharString name="dieresistonosgreek">
          231 994 1248 -42 callsubr
        </CharString>
        <CharString name="divide">
          106 1256 456 16 callgsubr
        </CharString>
        <CharString name="divide.uc">
          106 1280 594 16 callgsubr
        </CharString>
        <CharString name="djecyrillic">
          -5 551 923 rmoveto
          55 258 rlineto
          216 hlineto
          36 159 rlineto
          -218 hlineto
          23 105 rlineto
          -342 hlineto
          -22 -105 rlineto
          -140 hlineto
          -35 -159 rlineto
          141 hlineto
          -252 -1181 rlineto
          343 hlineto
          137 645 rlineto
          117 25 92 81 109 hhcurveto
          100 69 -62 -88 -23 -3 -24 -6 -29 hvcurveto
          -140 -655 rlineto
          -70 -15 -46 -33 -82 hhcurveto
          -12 -27 0 2 -8 hvcurveto
          -56 -251 rlineto
          -1 26 56 -3 36 hhcurveto
          254 1 165 118 46 219 156 727 rcurveline
          9 46 5 45 41 vvcurveto
          181 -135 126 -199 -149 -126 -70 -117 -79 vhcurveto
          endchar
        </CharString>
        <CharString name="dlinebelow">
          16 454 -16 -97 callsubr
          343 -476 -84 callsubr
          endchar
        </CharString>
        <CharString name="dollar">
          106 790 549 rmoveto
          102 -38 32 -37 -58 vvcurveto
          -87 -75 -61 -121 -7 vhcurveto
          -8 639 rmoveto
          -80 33 -40 46 56 vvcurveto
          83 71 59 110 6 vhcurveto
          74 -327 rmoveto
          65 304 61 -29 40 -51 5 -64 rlinecurve
          328 hlineto
          -4 203 -146 156 -227 52 33 157 rcurveline
          -144 hlineto
          -29 -139 rlineto
          1 -11 -11 0 -11 hhcurveto
          -334 -224 -179 -265 -176 121 -147 222 -67 hvcurveto
          66 -20 -67 -315 -80 25 -51 53 -6 72 rlinecurve
          -338 hlineto
          5 -219 158 -154 255 -44 -31 -146 rcurveline
          144 hlineto
          28 133 rlineto
          6 5 0 5 hhcurveto
          356 231 175 285 182 -110 125 -245 73 hvcurveto
          endchar
        </CharString>
        <CharString name="dotaccent">
          -207 746 1251 -71 callgsubr
        </CharString>
        <CharString name="dotaccentcmb">
          216 1251 -71 callgsubr
        </CharString>
        <CharString name="dotaccentcmb.short">
          292 1605 -102 callsubr
        </CharString>
        <CharString name="dotbelowcmb">
          -149 -470 -102 callsubr
        </CharString>
        <CharString name="dotlessi">
          -737 9 -44 callsubr
          endchar
        </CharString>
        <CharString name="dotlessj">
          -740 584 1089 rmoveto
          -344 hlineto
          -239 -1124 rlineto
          -68 -14 -41 -35 -73 hhcurveto
          -27 -22 3 3 -17 hvcurveto
          -54 -247 rlineto
          -8 38 67 -6 46 hhcurveto
          226 163 118 205 44 hvcurveto
          endchar
        </CharString>
        <CharString name="dotmacroncmb">
          214 1231 -6 callsubr
        </CharString>
        <CharString name="dotmacroncmb.short">
          276 1546 16 callsubr
        </CharString>
        <CharString name="doublebreve">
          -399 357 -3 callgsubr
          endchar
        </CharString>
        <CharString name="doublebreve.short">
          -399 431 76 callsubr
          125 -92 206 233 177 117 178 37 vhcurveto
          -246 hlineto
          -70 -19 -63 -42 -81 hhcurveto
          -73 -44 34 58 6 1 7 1 7 hvcurveto
          -380 -624 rmoveto
          247 hlineto
          69 19 63 42 81 hhcurveto
          73 43 -34 -58 -6 0 -6 -1 -7 hvcurveto
          247 hlineto
          4 38 callsubr
          -233 -177 112 callgsubr
          endchar
        </CharString>
        <CharString name="dzecyrillic">
          -148 170 -100 callsubr
          endchar
        </CharString>
        <CharString name="dzhecyrillic">
          -24 1065 hmoveto
          231 1089 41 callsubr
          371 hlineto
          -60 -280 117 callgsubr
          60 280 rlineto
          endchar
        </CharString>
        <CharString name="e">
          -73 436 667 -107 callsubr
          endchar
        </CharString>
        <CharString name="eacute">
          -73 436 667 -107 callsubr
          324 1284 -79 callgsubr
          endchar
        </CharString>
        <CharString name="ebreve">
          -73 436 667 -107 callsubr
          -162 1596 -81 callsubr
          endchar
        </CharString>
        <CharString name="ecaron">
          -73 436 667 -107 callsubr
          281 1270 -80 callgsubr
        </CharString>
        <CharString name="ecedilla">
          -73 436 667 rmoveto
          118 30 92 84 117 hhcurveto
          114 67 -76 -95 -11 -1 -14 -2 -6 hvcurveto
          302 -198 rmoveto
          12 53 5 69 56 vvcurveto
          284 -195 184 -288 -358 -241 -277 -369 -268 147 -178 244 -40 vhcurveto
          -64 -86 -26 -113 rlineto
          58 hlineto
          89 32 -12 -33 -34 -40 -18 -75 -42 -45 6 9 -30 hvcurveto
          -32 -150 rlineto
          -11 29 59 -7 59 hhcurveto
          180 129 95 132 86 -53 53 -97 9 hvcurveto
          51 70 240 24 172 145 51 203 rlinecurve
          -321 hlineto
          -76 -26 -74 -51 -100 hhcurveto
          -127 -77 89 123 11 1 11 2 11 hvcurveto
          endchar
        </CharString>
        <CharString name="ecedillabreve">
          -73 969 1571 rmoveto
          -100 -24 -79 -61 -98 hhcurveto
          -87 -51 46 79 12 2 12 2 12 hvcurveto
          -207 hlineto
          -4 -22 -2 -19 -19 vvcurveto
          -158 133 -111 183 235 164 129 200 46 vhcurveto
          -746 -904 rmoveto
          118 30 92 84 117 hhcurveto
          114 67 -76 -95 -11 -1 -14 -2 -6 hvcurveto
          -436 -770 rmoveto
          -26 -113 rlineto
          58 hlineto
          89 32 -12 -33 -34 -40 -18 -75 -42 -45 6 9 -30 hvcurveto
          -32 -150 rlineto
          -11 29 59 -7 59 hhcurveto
          180 129 95 132 86 -53 53 -97 9 hvcurveto
          51 70 240 24 172 145 51 203 rlinecurve
          -321 hlineto
          -76 -26 -74 -51 -100 hhcurveto
          -127 -77 89 123 11 1 11 2 11 hvcurveto
          751 hlineto
          12 53 5 69 56 vvcurveto
          284 -195 184 -288 -358 -241 -277 -369 -268 147 -178 244 -40 vhcurveto
          endchar
        </CharString>
        <CharString name="ecircumflex">
          -73 436 667 -107 callsubr
          349 1597 -64 callgsubr
        </CharString>
        <CharString name="ecircumflexacute">
          -73 436 667 -107 callsubr
          321 1577 -65 callgsubr
          -133 377 17 callsubr
          endchar
        </CharString>
        <CharString name="ecircumflexbelow">
          -73 436 667 -107 callsubr
          102 -140 -64 callsubr
        </CharString>
        <CharString name="ecircumflexdotbelow">
          -73 436 667 -107 callsubr
          349 1597 -77 callgsubr
          -600 -1715 -102 callsubr
        </CharString>
        <CharString name="ecircumflexgrave">
          -73 436 667 -107 callsubr
          697 1628 -9 callgsubr
          -146 -51 -65 callgsubr
          endchar
        </CharString>
        <CharString name="ecircumflexhookabove">
          -73 436 667 -107 callsubr
          357 1816 -52 callsubr
        </CharString>
        <CharString name="ecircumflextilde">
          -73 436 667 -107 callsubr
          318 1562 -63 callgsubr
        </CharString>
        <CharString name="ecyrillic">
          -1 callgsubr
          endchar
        </CharString>
        <CharString name="edblgrave">
          -73 436 667 -107 callsubr
          107 1285 -41 callgsubr
        </CharString>
        <CharString name="edieresis">
          -73 436 667 -107 callsubr
          -31 1271 -105 callgsubr
        </CharString>
        <CharString name="edotaccent">
          -73 436 667 -107 callsubr
          165 1276 -71 callgsubr
        </CharString>
        <CharString name="edotbelow">
          -73 436 667 -107 callsubr
          -62 -445 -102 callsubr
        </CharString>
        <CharString name="efcyrillic">
          430 861 -351 rmoveto
          70 333 rlineto
          446 10 292 260 387 vvcurveto
          279 -191 180 -308 10 vhcurveto
          69 323 rlineto
          -340 hlineto
          -69 -322 rlineto
          -446 -10 -292 -260 -387 vvcurveto
          -279 192 -180 307 -10 vhcurveto
          -71 -334 rlineto
          799 964 rmoveto
          -210 -142 -161 -195 -10 vhcurveto
          132 626 rlineto
          128 -5 77 -92 -148 vvcurveto
          -876 -135 rmoveto
          210 142 162 194 9 vhcurveto
          -132 -626 rlineto
          -127 5 -77 92 148 vvcurveto
          endchar
        </CharString>
        <CharString name="egrave">
          -73 436 667 -107 callsubr
          255 1284 -35 callsubr
        </CharString>
        <CharString name="ehookabove">
          -73 436 667 -107 callsubr
          12 1525 -71 callsubr
        </CharString>
        <CharString name="eight">
          120 1304 -23 callgsubr
        </CharString>
        <CharString name="eight.dnum">
          -507 677 187 -68 callsubr
        </CharString>
        <CharString name="eight.numr">
          -507 833 918 -68 callsubr
        </CharString>
        <CharString name="eight.subs">
          -507 605 -153 -68 callsubr
        </CharString>
        <CharString name="eight.sups">
          -507 906 1266 -68 callsubr
        </CharString>
        <CharString name="eight.tnum">
          106 1298 -23 callgsubr
        </CharString>
        <CharString name="einvertedbreve">
          -73 436 667 -107 callsubr
          503 1252 -60 callsubr
        </CharString>
        <CharString name="elcyrillic">
          -63 540 522 -50 callgsubr
        </CharString>
        <CharString name="ellipsis">
          450 74 callsubr
          560 118 callgsubr
          -82 -83 -103 -103 82 -83 103 hvcurveto
          561 hmoveto
          25 callsubr
          endchar
        </CharString>
        <CharString name="emacron">
          -73 436 667 -107 callsubr
          527 1467 -77 callsubr
        </CharString>
        <CharString name="emacronacute">
          -73 436 667 -107 callsubr
          70 1632 31 callsubr
        </CharString>
        <CharString name="emacrongrave">
          -73 436 667 -107 callsubr
          337 1628 -9 callgsubr
          414 -182 -77 callsubr
        </CharString>
        <CharString name="emcyrillic">
          314 331 25 callgsubr
        </CharString>
        <CharString name="emdash">
          782 10 437 94 callgsubr
        </CharString>
        <CharString name="emdash.uc">
          782 39 571 94 callgsubr
        </CharString>
        <CharString name="emquad">
          711 endchar
        </CharString>
        <CharString name="emspace">
          724 endchar
        </CharString>
        <CharString name="encyrillic">
          -15 11 hmoveto
          -34 callgsubr
        </CharString>
        <CharString name="endash">
          -242 10 437 104 callgsubr
        </CharString>
        <CharString name="endash.uc">
          -242 39 571 104 callgsubr
        </CharString>
        <CharString name="enquad">
          -313 endchar
        </CharString>
        <CharString name="enspace">
          9 endchar
        </CharString>
</ttFont>
